<?xml version="1.0" encoding="UTF-8" standalone="no"?>
<!-- Created with Inkscape (http://www.inkscape.org/) -->

<svg
   width="133.942"
   height="50.000042"
   viewBox="0 0 35.438821 13.229177"
   version="1.1"
   id="svg1"
   sodipodi:docname="easytask-logo.traced.svg"
   inkscape:version="1.3.2 (091e20ef0f, 2023-11-25)"
   xmlns:inkscape="http://www.inkscape.org/namespaces/inkscape"
   xmlns:sodipodi="http://sodipodi.sourceforge.net/DTD/sodipodi-0.dtd"
   xmlns="http://www.w3.org/2000/svg"
   xmlns:svg="http://www.w3.org/2000/svg">
  <sodipodi:namedview
     id="namedview1"
     pagecolor="#ffffff"
     bordercolor="#000000"
     borderopacity="0.25"
     inkscape:showpageshadow="2"
     inkscape:pageopacity="0.0"
     inkscape:pagecheckerboard="0"
     inkscape:deskcolor="#d1d1d1"
     inkscape:document-units="mm"
     inkscape:zoom="3.2848096"
     inkscape:cx="55.710992"
     inkscape:cy="50.383438"
     inkscape:window-width="1920"
     inkscape:window-height="1050"
     inkscape:window-x="0"
     inkscape:window-y="0"
     inkscape:window-maximized="1"
     inkscape:current-layer="svg1" />
  <defs
     id="defs1" />
  <path
     style="-inkscape-font-specification:'Raleway Heavy';fill:#333333;stroke-width:0.138746"
     d="M 12.458163,6.6850624 H 10.042868 V 13.07849 H 7.7341253 V 6.6850624 H 5.3069951 V 4.672314 H 12.458163 Z M 14.470905,4.672314 h 2.581051 l 2.675772,8.406176 h -2.34426 l -0.509104,-1.645719 h -2.237702 l -0.497263,1.645719 h -2.356101 z m 2.03643,5.2213003 -0.745904,-2.9599206 -0.781417,2.9599206 z M 25.42262,7.4191208 q 0,0 -0.201274,-0.1183979 Q 25.020068,7.182325 24.688561,7.0402508 24.35705,6.8863356 23.966339,6.7679378 q -0.390711,-0.118398 -0.769581,-0.118398 -0.29599,0 -0.485428,0.094722 -0.189432,0.094717 -0.189432,0.3196711 0,0.213114 0.189432,0.3433475 0.189438,0.1302387 0.532785,0.2367958 0.355195,0.106557 0.840621,0.2604722 0.781417,0.2367957 1.349724,0.544626 0.568303,0.3078303 0.876133,0.7932574 0.307836,0.4735862 0.307836,1.2668482 0,0.757735 -0.272314,1.278685 -0.272312,0.509103 -0.734063,0.816938 -0.461745,0.307831 -1.030047,0.449905 -0.568309,0.130239 -1.160293,0.130239 -0.603824,0 -1.266843,-0.118398 -0.651184,-0.130239 -1.266849,-0.343352 -0.61566,-0.22495 -1.12477,-0.520946 l 0.994536,-2.024583 q 0,0 0.236791,0.142074 0.236796,0.142074 0.627507,0.319671 0.390706,0.177598 0.864291,0.319672 0.485428,0.142079 0.970855,0.142079 0.37887,0 0.52095,-0.09472 0.153915,-0.106556 0.153915,-0.272312 0,-0.248632 -0.260473,-0.37887 Q 23.611151,10.213286 23.184917,10.094887 22.77053,9.9646541 22.261426,9.7988981 21.527362,9.5502615 21.053776,9.2424313 20.58019,8.9227601 20.355234,8.4965319 20.130279,8.058463 20.130279,7.4428025 q 0,-0.935337 0.43807,-1.5628383 0.438069,-0.6275067 1.148451,-0.947178 0.722217,-0.3315119 1.550997,-0.3315119 0.615661,0 1.183968,0.1539151 0.580144,0.1420796 1.077412,0.3551936 0.509103,0.2131143 0.887973,0.4025467 z M 27.636646,13.07849 V 4.672314 h 2.308738 V 7.8690306 L 32.502758,4.672314 h 2.604727 l -3.054637,3.765019 3.267751,4.641157 H 32.668514 L 30.584726,9.9883305 29.945384,10.651354 v 2.427136 z"
     id="text1"
     aria-label="TASK"
     inkscape:label="TASK" />
  <path
     style="font-size:19.9429px;font-family:Fasthand;-inkscape-font-specification:Fasthand;letter-spacing:0px;word-spacing:0px;fill:#ff00ff;stroke-width:0.122554"
     d="M 0.0455609,6.6502887 Q 0.09505486,6.5934018 0.14440198,6.4492928 0.1919389,6.3003846 0.23830238,6.1628369 0.28286599,6.0205151 0.32046059,5.9899612 0.3311079,5.931359 0.34238764,5.8889167 0.35365897,5.8464459 0.39063406,5.7997758 0.41482911,5.6323884 0.50301959,5.489979 0.59418711,5.3409937 0.66083601,5.1848786 0.73720322,5.1124213 0.809966,5.0304055 0.88750313,4.9465783 0.95486474,4.8502407 1.0943586,4.6557432 1.321901,4.5644817 q 0.1231376,0.00815 0.2162588,-0.048821 0.088362,-0.055123 0.2043633,-0.022481 0.086793,0.070963 0.1274454,0.077461 0.040646,0.00647 0.077155,0.030934 0.083269,0.1050384 0.1167965,0.1360537 0.038305,0.029214 0.059301,0.070413 0.031787,0.069876 0.0564,0.120624 0.022782,0.045995 0.040189,0.07762 0.028183,0.060319 0.045047,0.1194524 0.063223,0.2544859 0.088226,0.5233899 0.00124,0.032261 0.00251,0.064542 0.00124,0.032261 0.00431,0.06932 0.00431,0.06932 -0.00634,0.127913 Q 2.316127,6.028708 2.309082,6.0968579 2.294908,6.1895199 2.284805,6.2206177 2.249091,6.2995737 2.214551,6.3671745 2.184792,6.4329845 2.156203,6.487413 2.122213,6.527524 2.090021,6.572405 2.056031,6.612515 2.023836,6.657393 1.962432,6.740584 1.8615454,6.805911 l -0.066183,0.084992 q -0.032196,0.044872 -0.08294,0.0695 -0.06258,0.094546 -0.1532795,0.1724137 -0.040583,0.037106 -0.085923,0.07606 -0.040583,0.037106 -0.084129,0.08082 -0.060864,0.055683 -0.099002,0.1137398 -0.038143,0.058042 -0.1049548,0.1268967 -0.037599,0.030546 -0.1259421,0.085716 -0.0853784,0.048564 -0.11638585,0.082112 0.0838162,0.077538 0.12831415,0.2244861 0.04569,0.1355744 0.1378706,0.2208762 0.135033,-0.018192 0.288553,-0.059721 Q 1.6510641,8.0422755 1.777594,7.9725888 1.799634,7.9586708 1.819972,7.9402438 1.845033,7.9198658 1.870109,7.8995348 1.89517,7.8791568 1.920246,7.8588258 1.9453089,7.83845 1.97218,7.8228809 2.0701013,7.7641532 2.1596135,7.6976111 2.2491451,7.6311179 2.3075704,7.554498 2.5486553,7.3544309 2.7454045,7.0946834 2.9421519,6.8349307 3.0611982,6.5717391 3.1470412,6.4520501 3.2351506,6.2660126 3.3232624,6.0799799 3.3564656,5.9364777 3.4421461,5.7295268 3.5196065,5.6020815 q 0.07746,-0.1274457 0.1766245,-0.153924 0.076448,-0.028832 0.1823521,0.034925 0.1059032,0.06375 0.059541,0.2012978 -0.069158,0.091573 -0.1358091,0.2476838 -0.061871,0.1543132 -0.1585235,0.2453381 -0.061406,0.083186 -0.1357292,0.2913119 -0.073149,0.1967661 -0.1285216,0.3104234 -0.011914,0.026293 -0.026793,0.059199 -0.014879,0.032906 -0.039313,0.069413 -0.044092,0.071215 -0.0625,0.1381743 -0.1012702,0.180083 -0.2073983,0.3183392 -0.059755,7.341e-4 -0.078806,0.051522 -0.023181,0.068777 -0.047618,0.1052744 -0.010724,0.014971 -0.021453,0.029948 -0.010724,0.014971 -0.026246,0.0317 -0.015503,0.016775 -0.026246,0.0317 -0.010724,0.014971 -0.021471,0.029896 Q 2.7704744,7.7400244 2.704917,7.841147 2.639362,7.9422708 2.5618207,8.0260886 2.4878817,8.1194586 2.4103418,8.2032763 2.3346038,8.2918733 2.2534582,8.3661319 2.1723132,8.4403909 2.0965743,8.5289874 2.0256113,8.6157774 1.958254,8.7121251 l -0.099712,0.053967 q -0.02204,0.013918 -0.045931,0.022926 -0.02204,0.013918 -0.044173,0.027589 -0.04536,0.038905 -0.09314,0.056925 Q 1.627516,8.8915491 1.5486492,8.8994881 1.2008706,8.9324037 0.91731162,8.7882916 0.87783623,8.7704465 0.8353788,8.7591615 0.7959034,8.7413163 0.75344415,8.7300262 0.65537529,8.7015201 0.60868904,8.6645508 0.53866103,8.6091006 0.43800112,8.4724208 0.33256158,8.3375433 0.23965611,8.1924805 0.14495119,8.042643 0.11251836,7.9566392 0.11956674,7.8884935 0.1007567,7.7373178 0.08015113,7.581366 0.05178661,7.4337986 0.02162133,7.2814467 0,7.2241125 0.01191373,7.1978193 0.02960051,7.0710568 0.04071611,6.9413425 0.04705395,6.81343 0.05636877,6.6789416 0.04555942,6.6502719 Z M 1.3534351,5.4585242 q -0.034458,0.111229 -0.072522,0.2129002 -0.038062,0.1016759 -0.098839,0.2010011 -0.017696,0.1267368 -0.06171,0.2415698 -0.044014,0.114833 -0.091634,0.2201074 -0.00939,0.09086 -0.0409584,0.1518805 Q 0.9561994,6.5469842 0.9168911,6.6164059 0.8944177,6.7449445 0.8396736,6.8747413 0.7849272,7.0045326 0.8843332,7.1089391 0.99664621,7.0883881 1.0837576,7.0010045 q 0.087094,-0.087431 0.1491305,-0.1544731 0.029212,-0.038313 0.060238,-0.071812 0.035805,-0.035302 0.066811,-0.068854 0.031025,-0.033504 0.062033,-0.067052 0.031025,-0.033504 0.055461,-0.07001 L 1.6321916,6.2266573 q 0.037515,-0.074182 0.067824,-0.1674702 0.011271,-0.04247 0.022555,-0.084912 0.014255,-0.049036 0.028508,-0.098068 -0.01575,-0.1141247 0.00258,-0.2247269 0.021298,-0.1171839 -0.026094,-0.2139169 -0.020969,-0.041186 -0.071281,-0.087725 -0.050291,-0.046525 -0.067679,-0.07817 -0.1003377,0.03784 -0.1354978,0.08932 -0.016693,0.028097 -0.044716,0.055085 -0.025061,0.020378 -0.054916,0.042512 z m 4.5834107,-1.6520412 0.019271,0.08005 q 0.022177,0.029859 0.024132,0.1218805 -0.026162,0.075353 -0.010487,0.1458484 -0.00472,0.04543 -0.00823,0.079506 -0.00351,0.03406 0.00493,0.085455 0.00252,0.064546 0.036121,0.1391899 0.019172,0.036429 0.028832,0.076445 0.012617,0.033462 0.020467,0.068687 0.02053,0.1123222 0.048805,0.216263 0.028286,0.1039435 0.058368,0.2126631 0.039639,0.1051155 0.070978,0.2461024 0.031338,0.140992 0.051868,0.2533142 0.071832,0.060235 0.1018353,0.1253194 0.031789,0.069876 0.1137402,0.099007 0.180319,-0.100728 0.2715616,-0.2060994 0.091248,-0.1053572 0.1531186,-0.2596703 0.063828,-0.062292 0.094224,-0.1119382 0.025601,-0.047877 0.081065,-0.1178875 l 0.04762,-0.1052744 q 0.091247,-0.1053568 0.1001747,-0.1250996 0.00595,-0.013173 0.016692,-0.028097 0.015501,-0.016775 0.031023,-0.033504 0.1228113,-0.1663769 0.1655703,-0.3134827 0.050048,-0.084362 0.074405,-0.1644932 0.018401,-0.066975 0.1102792,-0.1561924 0.033283,-0.099874 0.089912,-0.1812583 0.056627,-0.081389 0.089912,-0.1812584 0.052558,-0.01982 0.083645,-0.00974 0.01794,0.00416 0.035869,0.00828 0.022723,0.00236 0.045423,0.00468 0.0575,0.065639 0.069019,0.1540708 0.011521,0.088432 -0.011033,0.1733426 -0.024358,0.080132 -0.018951,0.094464 0.00362,0.00957 -0.00236,0.022691 -0.016052,0.044274 -0.044641,0.098699 -0.030384,0.04968 -0.044641,0.098699 -0.015349,0.1040172 -0.044018,0.1148276 -0.028669,0.010813 -0.040567,0.037154 -0.066184,0.084988 -0.090621,0.1214913 -0.025601,0.047877 -0.081065,0.117887 -0.080516,0.090399 -0.095397,0.1232978 -0.014877,0.032906 -0.027415,0.043068 -0.066023,0.172249 -0.1434829,0.2996951 -0.071507,0.1142886 -0.1339268,0.2960911 -0.027415,0.043068 -0.054826,0.086164 -0.027415,0.043068 -0.038061,0.101676 -0.064382,0.089766 -0.095319,0.1669211 -0.030934,0.077159 -0.068997,0.1788302 -0.04653,0.050274 -0.093597,0.1280719 -0.057802,0.092744 -0.109104,0.1448374 -0.018485,0.023335 -0.065016,0.073613 -0.038768,0.041914 -0.08177,0.058131 Q 6.5694859,6.5694195 6.454753,6.5690834 6.3513485,6.5698648 6.2515634,6.5802059 6.1917195,6.5372842 6.1199687,6.520685 5.9943252,6.4480028 5.9020474,6.3190793 5.8097687,6.1901506 5.7102831,6.042116 5.645901,6.1318829 5.6137907,6.2203971 5.5834807,6.3136901 5.4886308,6.4094892 5.4273065,6.5363083 5.3612044,6.6649292 5.2932995,6.7887714 5.2140368,6.9114379 5.1395517,7.0323025 5.0638936,7.1645271 4.9864332,7.2919728 4.910773,7.4241922 4.8631578,7.5294718 4.8272811,7.5211714 4.7809189,7.6587196 4.5467146,7.7033755 4.4558525,7.6939847 4.3494836,7.7013288 4.2753945,7.707469 4.1749658,7.7016477 4.0017085,7.7342547 3.8485671,7.6610124 3.6954312,7.5877871 3.561325,7.46372 3.5020248,7.3933069 3.4642691,7.3365983 3.4468901,7.3049301 3.422909,7.2703316 3.3989416,7.235711 3.373167,7.1963138 3.3377772,7.1168842 3.2958482,7.0781199 3.2569161,7.032765 3.2580105,6.9777837 3.2298877,6.9610975 3.2250287,6.919275 3.2165644,6.8678789 3.207559,6.8439991 3.1475494,6.7138186 3.1233395,6.5483086 3.0991313,6.3828038 3.1096176,6.2369564 q 0.010647,-0.058602 0.04041,-0.1243912 0.013085,-0.037661 0.00705,-0.068146 -0.00425,-0.02569 0.010647,-0.058602 0.013085,-0.037663 0.035714,-0.078956 0.033366,-0.056242 0.045269,-0.082565 0.011271,-0.04247 0.024358,-0.080132 0.016051,-0.044274 0.040493,-0.080758 0.024432,-0.036509 0.042295,-0.075979 0.017864,-0.039466 0.035712,-0.078961 0.020829,-0.046078 0.027333,-0.086712 0.00948,-0.047232 0.050048,-0.084362 Q 3.4819446,5.2560852 3.5135076,5.195065 3.5450796,5.134064 3.5843906,5.0646469 3.6729616,4.807521 3.8596062,4.5788665 4.0510309,4.3484148 4.1743084,4.1109154 4.2303934,4.0570354 4.2637534,4.0007794 4.2971194,3.9445374 4.3304844,3.8882973 4.4102934,3.7381369 4.5632692,3.724107 L 4.8369493,3.697305 q 0.1279922,0.049967 0.2512045,0.1017318 0.1232145,0.05177 0.2297457,0.1316591 0.031595,-0.017518 0.069819,-0.031934 0.036372,-0.019321 0.081226,-0.030632 0.089612,-0.022865 0.17616,-0.082797 0.028669,-0.010811 0.05193,-0.035949 0.023267,-0.025138 0.042376,-0.032346 0.161361,-0.00626 0.1973927,0.089284 z M 4.7295154,4.4255006 Q 4.5183515,4.6470256 4.3711847,4.8935337 4.2240172,5.1400423 4.104971,5.4032341 q -0.014879,0.032906 -0.034535,0.067611 -0.016693,0.028097 -0.031572,0.061001 -0.016693,0.028097 -0.031572,0.061001 -0.014879,0.032906 -0.02498,0.064008 -0.0202,0.062205 -0.028427,0.1416958 -0.00822,0.079504 -0.015265,0.1476548 -0.00236,0.02269 -0.0047,0.045428 -0.00415,0.017934 -0.0101,0.031102 -0.00595,0.013172 -0.0101,0.031102 -0.00415,0.017934 -0.00831,0.035864 -0.00109,0.054997 0.021705,0.100967 0.017379,0.031668 0.0444,0.1033204 l 0.036035,0.095556 q 0.010807,0.028653 0.045596,0.091958 0.068309,0.094304 0.1079494,0.199419 0.028829,0.076446 0.084602,0.1809351 0.055774,0.1044893 0.1275264,0.1210896 0.076527,0.014799 0.1266467,-0.025957 0.057881,-0.04912 0.099088,-0.070096 Q 4.8361265,6.5027581 5.0260528,6.1091436 5.2159797,5.7155286 5.3119879,5.2754732 5.2045872,5.0485595 5.1252452,4.7946936 5.0512888,4.5551679 4.9182771,4.3761123 q -0.047232,-0.00948 -0.096185,0.019907 -0.036372,0.01932 -0.092632,0.029328 z m 3.6585796,-0.168129 0.075357,0.02617 q 0.038307,0.029214 0.025307,0.1105201 -0.00649,0.040671 -0.010023,0.074725 0.00125,0.032256 6.817e-4,0.059762 0.011977,0.017342 0.02397,0.034621 0.010162,0.012533 0.018564,0.020294 0.020362,0.02505 0.013871,0.065721 0.08671,0.027332 0.1274438,0.077457 0.052721,0.067441 0.1155409,0.1037798 0.080759,0.040494 0.1363746,0.057723 0.065177,0.013645 0.1327705,0.048166 0.041752,-0.048475 0.065641,-0.057484 0.033446,-0.012611 0.069249,-0.047914 0.041586,-0.1357461 0.032887,-0.3180158 -0.00488,-0.041826 -0.013319,-0.09321 -0.00846,-0.051395 -0.022874,-0.089608 Q 9.1279564,4.2076404 9.0058169,4.1008899 8.881894,3.9893533 8.8034031,3.8825186 8.7345495,3.8157081 8.7146467,3.7195204 8.6911412,3.6137794 8.6450217,3.5493076 8.6222421,3.5033119 8.587524,3.4836735 8.572563,3.4729508 8.5576072,3.4622258 8.5408527,3.4467436 8.5240826,3.4312099 8.4743385,3.3571924 8.4448849,3.2646072 8.4184081,3.1654458 8.340622,3.1183743 8.3049058,3.1973303 8.2419433,3.406632 8.1771748,3.6111495 8.1124088,3.8156719 8.052418,4.0183877 8.0196816,4.0907677 q -0.011269,0.042473 -0.027332,0.086712 -0.013084,0.037665 -0.032738,0.072375 -0.01966,0.034707 -0.035716,0.078956 -0.013084,0.037664 -0.024358,0.080132 Q 7.8187156,4.6577202 7.7765025,4.777332 7.7390655,4.895142 7.7034335,5.0177262 7.6678006,5.1403164 7.589408,5.4100072 7.5656792,5.506272 7.5063174,5.725127 7.442178,5.9457839 7.3887681,6.1514768 q -0.059989,0.2027206 -0.064059,0.264285 -0.021296,0.1171834 -0.085052,0.2230897 -0.063756,0.105901 -0.187983,0.1527484 -0.00184,-0.00493 -0.04794,-0.069238 -0.044338,-0.059686 -0.087498,-0.1307265 -0.046141,-0.064464 -0.052721,-0.067441 0.00704,-0.068147 -2.407e-4,-0.1308848 -0.00549,-0.057965 0.041584,-0.1357512 -0.0043,-0.06932 0.032412,-0.2468929 Q 6.9721963,5.8283128 7.0285824,5.6160393 7.0831662,5.398986 7.1342275,5.2160082 7.1805106,5.0348319 7.1941359,4.9696591 7.2328259,4.8841223 7.2946163,4.6861806 7.3516311,4.4900459 7.4086439,4.2939058 7.4686326,4.0911852 7.4959646,4.0044728 7.4903168,3.8592556 7.5520292,3.6176859 7.6167153,3.3695351 7.6939336,3.1111998 7.7741288,2.8462886 7.81861,2.6603333 7.837562,2.5658693 7.849387,2.4959176 7.861207,2.4259716 7.874212,2.3446638 7.89802,2.2920268 7.90867,2.2334347 7.90076,2.1545607 7.848117,2.1307475 7.800261,2.1051365 7.78161,2.0412225 7.806351,1.8463406 7.871362,1.7727077 7.939343,1.6924847 7.9791298,1.5519689 q 0.042922,-0.059844 0.06916,-0.091568 0.038768,-0.041913 0.065556,-0.1011268 0.041663,-0.092118 0.1832776,-0.1073379 0.1445888,-0.021796 0.1883034,0.021765 0.015564,0.02686 0.028832,0.076446 0.00424,0.02569 0.00847,0.051394 0.00424,0.02569 0.00847,0.051396 0.00665,0.046585 0.011521,0.088432 0.00488,0.041825 0.00972,0.083653 0.00304,0.037066 0.00972,0.083657 0.00488,0.041825 0.011521,0.088432 0.02053,0.1123222 0.04223,0.2132841 0.021705,0.1009668 0.1305837,0.158142 0.00847,0.051396 0.048004,0.1128737 0.03956,0.061488 0.080292,0.1116195 0.1344265,0.2985803 0.3387234,0.5653589 0.2042964,0.2667787 0.4031055,0.475592 0.018023,0.047791 0.050368,0.090152 0.032355,0.042386 0.069481,0.08295 0.1439847,0.2949759 0.1714938,0.6284225 0.012853,0.1643335 0.025711,0.3286668 0.017635,0.1625315 0.033467,0.3202888 -0.021301,0.1171792 -0.012675,0.2558203 0.008,0.1225062 -0.02709,0.217602 -0.018951,0.094465 -0.021138,0.2044354 -0.00221,0.1099766 -0.095237,0.2105545 -0.054916,0.042512 -0.1290048,0.048648 -0.069312,0.00435 -0.1194498,0.045046 -0.041149,0.021122 -0.076993,0.056328 -0.028045,0.026943 -0.071044,0.043158 Q 9.2992898,6.036794 9.2000424,6.0196347 9.113958,6.008439 8.98072,6.0313913 8.9699125,6.0027383 8.9358417,5.9992197 8.9017669,5.9957082 8.8754416,5.9837761 8.7879314,5.8530496 8.7160977,5.792816 8.65743,5.7385406 8.6047078,5.6710998 8.5345962,5.572017 8.4985609,5.4764602 8.4589218,5.3713446 8.3733023,5.2890272 q -0.070656,-0.07159 -0.073084,-0.092503 -0.00247,-0.020881 -0.016864,-0.059134 -0.04685,-0.1242265 -0.117036,-0.266939 -0.07199,-0.1474913 0.027557,-0.2887193 0.038144,-0.058042 0.033829,-0.1273681 -6.818e-4,-0.059762 0.039786,-0.1405203 0.011914,-0.026294 0.054915,-0.04251 0.033446,-0.012611 0.065722,-0.013856 z M 11.38416,3.9243157 q 0.09798,-0.015148 0.153985,-0.1126562 0.05897,-0.1040992 0.119208,-0.1759302 0.0202,-0.062205 0.05294,-0.1345706 0.03274,-0.072379 0.07566,-0.1322246 0.03446,-0.1112293 0.0755,-0.2194813 0.04582,-0.1100537 0.09821,-0.2171351 0.0202,-0.062205 0.04222,-0.119612 0.0202,-0.062205 0.04222,-0.119607 0.02201,-0.057396 0.04401,-0.1148328 0.0202,-0.062205 0.04041,-0.124391 0.01841,-0.06697 0.0296,-0.1530558 0.0035,-0.03406 0.007,-0.068145 0.0083,-0.035862 0.01661,-0.071748 0.02013,-0.105824 0.05223,-0.1943379 0.03328,-0.099875 0.02231,-0.2158004 0.0148,-0.076527 0.0643,-0.1333952 0.04949,-0.056887 0.0643,-0.1334001 0.01308,-0.037665 0.01535,-0.1040224 0.0011,-0.054997 0.0285,-0.098068 0.02741,-0.043069 0.02497,-0.064007 5.25e-4,-0.027498 0.0094,-0.047232 0.0088,-0.063367 0.03924,-0.113031 0.03157,-0.061001 0.04879,-0.11663456 0.08341,-0.14060253 0.11615,-0.21298255 0.03274,-0.0723751 0.101898,-0.16394892 0.150385,-0.12219947 0.334377,-0.16975537 0.183983,-0.0475804 0.30008,0.0287306 0.02818,0.0603185 0.06118,0.11882662 0.03117,0.0537317 0.06055,0.10268228 0.06713,0.10566405 0.07287,0.2945138 -0.0022,0.1099712 -0.02349,0.2271552 -0.02013,0.1058238 -0.01394,0.2235517 l -0.01661,0.071748 q -0.01426,0.049035 -0.0202,0.062205 0.0065,0.2922459 -0.01149,0.5773618 -0.0075,0.1392724 -0.01322,0.2833192 -0.0057,0.1440464 -0.01142,0.288093 0.206386,-0.219723 0.287451,-0.3376104 0.0459,-0.066406 0.09837,-0.1298786 0.05069,-0.068208 0.10793,-0.1334773 l 0.128762,-0.1795339 q 0.03219,-0.044871 0.06438,-0.089772 0.03697,-0.046673 0.07393,-0.09337 0.04041,-0.1243862 0.112548,-0.2225407 0.07214,-0.09815 0.152026,-0.2046771 0.04167,-0.092118 0.09234,-0.1603452 0.05069,-0.068208 0.109104,-0.14483737 0.0167,-0.0280961 0.03337,-0.0562414 0.01669,-0.0280961 0.02859,-0.0544392 0.03931,-0.0694126 0.06555,-0.10112688 l 0.04284,-0.10347779 q 0.02976,-0.0658094 0.056,-0.0975184 0.07338,-0.065896 0.139574,-0.15086905 0.03697,-0.0466737 0.05365,-0.0748182 0.02263,-0.0412667 0.06321,-0.0784216 l 0.03266,-0.11600841 q 0.01661,-0.07174839 0.09249,-0.07310326 0.01308,-0.03766414 0.06086,-0.05568203 0.05734,-0.02162185 0.08842,-0.01154403 0.01262,0.03346321 0.03596,0.05193397 0.02335,0.01849068 0.02047,0.06868723 -0.03517,0.0514819 -0.05897,0.10409919 -0.01786,0.0394665 -0.07574,0.0885964 -0.0708,0.17405117 -0.142936,0.27220064 -0.06916,0.0915689 -0.08685,0.2183059 -0.10119,0.22371109 -0.211934,0.45103089 -0.110746,0.2273147 -0.225094,0.4450763 -0.05255,0.01982 -0.0907,0.077863 -0.03815,0.058042 -0.08836,0.055123 -0.06635,-0.00228 -0.06673,0.112487 -0.149356,0.35648 -0.377669,0.6772477 -0.112466,0.266169 -0.298485,0.5109578 -0.188995,0.2513646 -0.302088,0.5013996 0.05116,0.1935469 0.03841,0.4057436 -0.01276,0.2121918 0.0025,0.3974383 -0.0076,0.095639 -0.0092,0.1781221 0.0031,0.080676 0.0074,0.150001 0.01042,0.1434153 -0.01024,0.2767331 0.03259,0.1732659 0.01796,0.3370498 -0.01464,0.1637895 -0.04063,0.3263986 0.01935,0.1236822 -0.01988,0.2367134 -0.03626,0.10645 -0.04495,0.2570772 -0.0041,0.061565 -0.01354,0.1087968 -0.0094,0.047232 -0.01354,0.1088014 -0.01065,0.058602 -0.01174,0.1135809 -0.0011,0.054998 -0.01175,0.1135755 l -0.02201,0.057396 q -0.0059,0.013173 -0.01192,0.026293 -0.0041,0.017934 -0.0101,0.031102 l -0.039,0.2439212 q -0.01636,0.2026383 -0.0932,0.3462181 -0.04229,0.075978 -0.08099,0.1615157 -0.03869,0.085537 -0.08035,0.1776545 -0.02679,0.059199 -0.04519,0.126193 -0.01542,0.060402 -0.04519,0.1261878 -0.03869,0.085538 -0.06132,0.126819 -0.0167,0.028097 -0.03157,0.061001 -0.01308,0.037661 -0.02616,0.075352 -0.06564,0.057485 -0.09,0.13763 -0.02436,0.080132 -0.04691,0.1650423 -0.03697,0.046671 -0.0459,0.066406 -0.0089,0.019733 -0.0459,0.066406 -0.05788,0.04912 -0.07935,0.079018 -0.02443,0.036509 -0.02921,0.038313 -0.04949,0.056887 -0.12713,0.097036 -0.07761,0.0402 -0.113965,0.1030058 -0.09556,0.036036 -0.152975,0.014033 -0.05742,-0.022009 -0.113659,-0.055373 -0.113738,-0.099001 -0.1403,-0.2417947 -0.03134,-0.140992 -0.0442,-0.3053253 -0.01285,-0.1643338 -0.08845,-0.321378 -0.0051,-0.1727163 -0.03996,-0.2796336 -0.03127,-0.097351 -0.03385,-0.2055329 0.02663,-0.146475 0.01879,-0.1817206 -0.01145,-0.044778 0.0321,-0.088513 -0.01386,-0.065718 -0.0073,-0.1063734 0.0094,-0.047232 -0.0038,-0.096816 0.02147,-0.029896 0.02976,-0.06581 0.0101,-0.031102 0.03931,-0.069413 0.01174,-0.1135809 0.01933,-0.2092194 0.0076,-0.095639 0.0062,-0.1715406 -0.0013,-0.075902 0.0021,-0.1536048 0.0082,-0.0795 0.01644,-0.1590053 -8.2e-5,-0.04363 -0.0049,-0.085459 0.0017,-0.038869 -0.0013,-0.075897 -0.003,-0.037065 -0.0061,-0.074099 0.0035,-0.03406 0.007,-0.068151 0.0069,-0.1117731 0.04972,-0.2588795 l 0.0785,-0.2696914 q 0.01724,-0.055594 0.0285,-0.098068 0.01308,-0.037661 0.01542,-0.060403 0.01064,-0.058602 0.01778,-0.083109 0.0596,-0.087966 0.04465,-0.098694 -0.01016,-0.012533 -6.29e-4,-0.01612 0.08035,-0.1776549 0.161968,-0.3230361 0.0321,-0.088514 0.06782,-0.1674702 0.03572,-0.078956 0.09414,-0.1555665 0.0321,-0.088514 0.06782,-0.1674704 0.03572,-0.078956 0.09415,-0.155566 0.05663,-0.081389 0.101897,-0.1639487 0.04825,-0.089141 0.08694,-0.1746775 0.03689,-0.090316 0.08216,-0.1728757 0.04527,-0.082565 0.09712,-0.162147 -0.03016,-0.1523474 -0.0232,-0.2641253 0.0087,-0.1069944 -0.01959,-0.2545672 0.01299,-0.081307 0.0092,-0.1781217 -0.0038,-0.096816 -0.01348,-0.180468 0.01787,-0.039467 0.01418,-0.092662 -0.0061,-0.074099 -0.0062,-0.1177272 0.01354,-0.1088014 -0.01348,-0.180473 -0.01927,-0.080049 -0.02828,-0.1039387 -0.01802,-0.047791 -0.01872,-0.1075432 -0.01567,-0.070497 -0.04089,-0.1373892 -0.0542,0.1023024 -0.069,0.1788302 -0.01895,0.094464 -0.04628,0.1811763 -0.01192,0.026293 -0.02679,0.059198 -0.01488,0.032905 -0.0064,0.08428 -0.03391,0.08374 -0.04167,0.092118 -0.01727,0.012114 -0.0083,0.035862 -0.06305,0.1656684 -0.124291,0.3361158 -0.05829,0.1638607 -0.117729,0.3390872 -0.05466,0.1734246 -0.11591,0.3438672 -0.06305,0.1656733 -0.126091,0.3313417 -0.05718,0.1088784 -0.125706,0.2165862 -0.06854,0.1077029 -0.144819,0.2237934 -0.02741,0.043069 -0.06078,0.099325 -0.03038,0.04968 -0.06854,0.107703 -0.07926,0.1226662 -0.245391,0.1307613 -0.187354,0.1688877 -0.370968,0.1016728 -0.183605,-0.067194 -0.314107,-0.1817034 -0.05985,-0.042927 -0.09995,-0.076917 -0.0401,-0.033972 -0.07019,-0.1427123 -0.01026,-0.056159 -0.01575,-0.1141244 -0.01206,-0.060939 -0.01755,-0.1189036 -0.0055,-0.05796 -0.01458,-0.1254801 -0.01387,-0.065718 -0.02954,-0.1362127 -0.01026,-0.056164 -0.02053,-0.1123223 -0.01026,-0.056164 -0.0253,-0.11052 -0.02351,-0.105741 -0.03988,-0.236005 -0.02178,-0.1445914 -0.02085,-0.2868405 9.43e-4,-0.1422451 0.0354,-0.253474 -0.0031,-0.080676 -0.0044,-0.1565776 -0.0031,-0.080681 -0.0074,-0.1500011 -0.0013,-0.075902 -0.0056,-0.1452221 -0.0013,-0.075902 -0.0027,-0.1517984 -0.0098,-0.1709149 0.0029,-0.3394779 0.01284,-0.1685684 0.03883,-0.3311772 0.02255,-0.084911 0.04574,-0.153687 0.02319,-0.068772 0.04934,-0.1441239 0.09195,-0.045605 0.140276,-0.091122 0.04832,-0.045517 0.09485,-0.095798 0.02984,-0.02218 0.0597,-0.0443125 0.02984,-0.0221798 0.06149,-0.0395525 0.02984,-0.0221798 0.05671,-0.0377512 0.02984,-0.0221798 0.05492,-0.0425106 0.0871,-0.0874306 0.117574,-0.0934329 0.02574,-0.0041 0.03877,-0.0419138 0.03713,0.0405839 0.08075,0.0404916 0.04841,-0.001888 0.0712,0.0440948 0.02522,0.0668924 0.0087,0.18226938 -0.01354,0.10880145 -0.01762,0.17037005 -0.0065,0.04067 -0.0112,0.08608 -0.0047,0.04543 -0.0076,0.095639 -0.004,0.105197 -0.02834,0.1853287 0.0066,0.046587 0.0085,0.095013 0.0066,0.046587 0.0019,0.092036 -0.0047,0.04543 -0.0028,0.093837 0.0019,0.048387 0.0038,0.096816 -0.05592,0.1411516 -0.07714,0.3019636 -0.02122,0.160812 -0.04001,0.3425372 -0.0011,0.054997 -0.01056,0.1022201 -0.0065,0.040671 -0.01057,0.1022154 0.0066,0.046585 0.01332,0.093211 0.01145,0.044777 0.0181,0.091409 0.01145,0.044777 0.0181,0.091409 0.0066,0.046587 0.01332,0.093211 -3.86e-4,0.1147502 0.02555,0.2414104 0.03134,0.1409918 0.07223,0.2783761 0.04089,0.1373874 0.09495,0.2807254 z m 1.676412,0.3064904 -0.0095,0.0036 q -0.141323,0.1897241 -0.231784,0.3984717 -0.04284,0.1034777 -0.09226,0.2039733 -0.04284,0.1034777 -0.09046,0.2087521 -0.01903,0.050835 -0.03986,0.096897 -0.01903,0.050835 -0.03806,0.1016715 -0.04103,0.1082518 -0.06476,0.2045224 -0.01535,0.1040221 -0.03367,0.2146195 -0.01832,0.1106033 -0.06594,0.215883 -0.07801,0.1549345 -0.08027,0.2212825 -0.0017,0.038869 -0.007,0.068147 -0.0035,0.03406 -0.0088,0.063366 l -0.01581,0.1751442 q -0.0065,0.040673 -0.01299,0.081307 -0.0047,0.045428 -0.01597,0.087887 -0.01237,0.097442 -0.01393,0.2235517 -0.0016,0.1261106 -0.01394,0.2235521 -0.002,0.1972328 0.01921,0.3693177 0.02124,0.1720895 0.09205,0.3309361 l 0.02703,0.071672 q 0.01081,0.028653 0.04849,0.041742 0.043,-0.016214 0.128925,-0.092278 0.05122,-0.095721 0.09766,-0.1896411 0.04644,-0.093915 0.08451,-0.1955909 0.07612,-0.2033467 0.171363,-0.4138964 0.07612,-0.2033468 0.114572,-0.4197734 0.03845,-0.216422 0.03201,-0.4650397 0.0088,-0.063372 0.01112,-0.1297138 0.0041,-0.061564 -2.4e-4,-0.1308848 -0.0098,-0.1272853 0.01448,-0.2510462 -0.0051,-0.1727162 -0.0084,-0.3406534 0.0015,-0.1697387 0.0065,-0.3299246 0.01252,-0.3430812 -0.0042,-0.6478575 z"
     id="text2"
     aria-label="easy"
     inkscape:label="easy" />
</svg>
