<?xml version="1.0" encoding="UTF-8" standalone="no"?>
<!-- Created with Inkscape (http://www.inkscape.org/) -->

<svg
   width="133.942"
   height="49.99987"
   viewBox="0 0 35.438821 13.229133"
   version="1.1"
   id="svg1"
   sodipodi:docname="easytask-logo-dark.traced.svg"
   inkscape:version="1.3.2 (091e20ef0f, 2023-11-25)"
   xmlns:inkscape="http://www.inkscape.org/namespaces/inkscape"
   xmlns:sodipodi="http://sodipodi.sourceforge.net/DTD/sodipodi-0.dtd"
   xmlns="http://www.w3.org/2000/svg"
   xmlns:svg="http://www.w3.org/2000/svg">
  <sodipodi:namedview
     id="namedview1"
     pagecolor="#ffffff"
     bordercolor="#000000"
     borderopacity="0.25"
     inkscape:showpageshadow="2"
     inkscape:pageopacity="0.0"
     inkscape:pagecheckerboard="0"
     inkscape:deskcolor="#d1d1d1"
     inkscape:document-units="mm"
     inkscape:zoom="6.5696207"
     inkscape:cx="59.28805"
     inkscape:cy="48.632945"
     inkscape:window-width="1920"
     inkscape:window-height="1050"
     inkscape:window-x="0"
     inkscape:window-y="0"
     inkscape:window-maximized="1"
     inkscape:current-layer="svg1" />
  <defs
     id="defs1" />
  <path
     style="font-weight:900;font-size:22.5778px;font-family:Raleway;-inkscape-font-specification:'Raleway Heavy';letter-spacing:0px;word-spacing:0px;stroke-width:0.139004"
     d="M 12.481368,6.6974703 H 10.061571 V 13.102812 H 7.7485311 V 6.6974703 H 5.3168736 V 4.6809741 h 7.1644944 z m 2.016496,-2.0164962 h 2.58586 l 2.680754,8.4218379 H 17.415853 L 16.905798,11.45403 h -2.24187 l -0.498193,1.648782 h -2.360487 z m 2.04022,5.231029 -0.74729,-2.9654361 -0.782875,2.9654361 z m 8.931901,-2.4791044 q 0,0 -0.201653,-0.1186175 Q 25.066684,7.1956638 24.734554,7.0533226 24.402424,6.8991202 24.010991,6.7805027 23.619552,6.6618848 23.239976,6.6618848 q -0.296547,0 -0.486332,0.094894 -0.189791,0.094894 -0.189791,0.3202673 0,0.2135112 0.189791,0.3439905 0.189785,0.1304793 0.533778,0.2372349 0.35585,0.1067556 0.842182,0.2609581 0.782878,0.2372348 1.352239,0.5456403 0.569367,0.3084055 0.877771,0.7947371 0.308403,0.4744698 0.308403,1.269207 0,0.759152 -0.27282,1.281068 -0.27282,0.510055 -0.735426,0.81846 -0.462606,0.308406 -1.031973,0.450747 -0.569361,0.130479 -1.162448,0.130479 -0.60495,0 -1.26921,-0.118617 -0.652396,-0.130479 -1.269205,-0.343991 -0.616811,-0.225373 -1.126866,-0.521917 l 0.996387,-2.028358 q 0,0 0.237235,0.142341 0.237232,0.142341 0.628671,0.320267 0.391439,0.177926 0.865908,0.320267 0.486332,0.142341 0.972663,0.142341 0.379576,0 0.521915,-0.09489 0.154202,-0.106756 0.154202,-0.27282 0,-0.249097 -0.260957,-0.379576 Q 23.655135,10.23227 23.228113,10.113653 22.812953,9.9831737 22.302896,9.8171088 21.56747,9.5680126 21.092999,9.2596072 20.618529,8.9393399 20.393156,8.512317 20.167783,8.0734327 20.167783,7.4566218 q 0,-0.9370777 0.438885,-1.5657504 0.438884,-0.6286723 1.150587,-0.9489393 0.723569,-0.3321286 1.553893,-0.3321286 0.616808,0 1.186174,0.1542025 0.581224,0.1423411 1.079419,0.3558523 0.510052,0.2135114 0.889628,0.4032994 z m 2.218153,5.6699133 V 4.6809741 h 2.313039 v 3.2026706 l 2.562134,-3.2026706 h 2.609586 l -3.060328,3.7720342 3.273839,4.6498037 h -2.657032 l -2.087665,-3.095915 -0.640534,0.664258 v 2.431657 z"
     id="text1-5"
     aria-label="TASK"
     inkscape:label="TASK" />
  <path
     style="font-size:19.9429px;font-family:Fasthand;-inkscape-font-specification:Fasthand;letter-spacing:0px;word-spacing:0px;fill:#666666;stroke-width:0.122782"
     d="m 0.04563932,6.6626329 q 0.04959409,-0.056973 0.09902491,-0.2013714 0.0476263,-0.1491836 0.0940761,-0.2869876 0.0446451,-0.1425913 0.0823111,-0.1731984 0.0106708,-0.058701 0.021968,-0.1012339 0.0112995,-0.042534 0.0483357,-0.089308 Q 0.41559525,5.6428322 0.50395031,5.5001606 0.59528716,5.3508961 0.662061,5.1944922 0.7385705,5.1218999 0.81146955,5.0397319 0.88915436,4.9557586 0.95663866,4.8592321 1.0963921,4.6643712 1.3243567,4.5729365 q 0.1233638,0.00816 0.2166673,-0.0489 0.088517,-0.055251 0.2047403,-0.022532 0.086954,0.071094 0.127683,0.077605 0.040727,0.00651 0.077299,0.030993 0.083424,0.105231 0.1170133,0.136305 0.038376,0.029268 0.059411,0.070545 0.031846,0.070005 0.05651,0.1208474 0.022821,0.046072 0.040259,0.077768 0.028236,0.060431 0.045129,0.1196721 0.063341,0.254962 0.08839,0.5243648 0.00126,0.032331 0.00252,0.064663 0.00126,0.032331 0.00432,0.069449 0.00432,0.06945 -0.00635,0.1281503 -0.037505,0.1180285 -0.044564,0.1863022 -0.014199,0.092836 -0.02432,0.1239914 -0.03578,0.079105 -0.070384,0.1468305 -0.029818,0.065922 -0.058457,0.120462 -0.034056,0.04018 -0.066307,0.085149 -0.034056,0.04018 -0.066307,0.085149 -0.06152,0.083343 -0.1625919,0.1487969 l -0.066307,0.085149 q -0.03225,0.044972 -0.083102,0.069609 -0.062696,0.094723 -0.1535659,0.1727318 -0.04065,0.037202 -0.086083,0.076203 -0.04065,0.037202 -0.084278,0.080991 -0.060971,0.0558 -0.099186,0.1139506 Q 1.2542808,7.4753335 1.187346,7.5443172 1.149679,7.5749252 1.0611624,7.6301732 0.9756262,7.6788332 0.94455222,7.7124182 1.0285257,7.7901032 1.0731051,7.9373216 1.1188811,8.0731518 1.2112338,8.158613 1.3465241,8.140404 1.5003321,8.0988 1.6541401,8.057201 1.7809596,7.9875262 q 0.022137,-0.013796 0.042455,-0.03241 0.025112,-0.020405 0.050222,-0.040811 Q 1.8987418,7.8939 1.923852,7.8734945 1.9489637,7.8530891 1.975879,7.837475 2.0739701,7.7786145 2.1636624,7.7119826 2.2533553,7.6453512 2.3118942,7.5686012 2.5534294,7.3681634 2.7505446,7.1079303 2.9476599,6.8476978 3.066928,6.5840157 3.1529302,6.4641011 3.2412049,6.2777186 3.3294791,6.091336 3.3627449,5.9475679 3.4485855,5.7402336 3.5261908,5.6125503 3.6037958,5.4848676 3.7031437,5.4583373 3.7797327,5.4294523 3.885835,5.4933273 3.9919366,5.5572013 3.945488,5.6950045 3.8762,5.7867455 3.8094257,5.9431492 3.7474387,6.0977484 3.6506055,6.1889409 q -0.06152,0.083343 -0.1359819,0.2918557 -0.073285,0.1971327 -0.1287609,0.3110023 -0.011926,0.026369 -0.026835,0.059329 -0.014909,0.032962 -0.03939,0.069532 -0.044177,0.071337 -0.062616,0.1384329 -0.1014584,0.180419 -0.207785,0.3189328 -0.059876,7.356e-4 -0.078943,0.051639 -0.023225,0.068903 -0.047707,0.1054732 -0.01075,0.014984 -0.021502,0.029978 -0.01075,0.014984 -0.026285,0.03178 -0.015538,0.016791 -0.026285,0.03178 -0.01075,0.014989 -0.021502,0.029978 Q 2.7756957,7.7545528 2.710017,7.8558674 2.644339,7.9571917 2.5666533,8.041164 2.4925783,8.13471 2.4148926,8.2186819 2.3390116,8.3074419 2.2577158,8.3818399 2.1764188,8.4562369 2.100539,8.5449973 2.029445,8.6319513 1.9619621,8.7284788 l -0.099897,0.054073 q -0.022137,0.013796 -0.046072,0.022822 -0.022137,0.013796 -0.04426,0.027624 -0.045435,0.039004 -0.093304,0.057056 -0.04787,0.018052 -0.1268925,0.025985 Q 1.2031075,8.9490151 0.91902092,8.8046366 0.87946619,8.7867477 0.83693449,8.7754469 0.79737975,8.757558 0.75484837,8.7462572 0.65659618,8.7176943 0.60982299,8.6806572 0.5396634,8.6251007 0.43881626,8.4881672 0.33318064,8.3530394 0.24010294,8.2077084 0.14522083,8.0575896 0.11272777,7.971426 0.11978864,7.9031518 0.10094524,7.751697 0.08029594,7.5954551 0.05188246,7.4476096 0.02166211,7.2949769 0,7.2375343 0.0119265,7.211167 0.02965557,7.084193 0.04079211,6.954238 0.04714215,6.8260882 0.05647346,6.691346 0.04564231,6.6626245 Z M 1.3559509,5.4686467 q -0.034523,0.1114367 -0.072657,0.2132995 -0.038134,0.1018617 -0.099025,0.2013714 -0.017729,0.1269735 -0.061826,0.24202 -0.044097,0.1150464 -0.091804,0.2205191 -0.00941,0.091031 -0.0410342,0.152165 Q 0.9579815,6.5591557 0.9185919,6.6286865 0.896076,6.7574646 0.8412291,6.8875005 0.786382,7.0175364 0.8859729,7.122138 0.99850449,7.10157 1.0857638,7.013987 1.1730228,6.926403 1.2351717,6.8592266 q 0.029268,-0.038379 0.060343,-0.071965 0.035861,-0.035394 0.066936,-0.068982 0.031074,-0.033587 0.062149,-0.067177 0.031074,-0.033587 0.055556,-0.07016 L 1.6352054,6.2381565 q 0.037586,-0.074318 0.067951,-0.1677828 0.0113,-0.042534 0.022598,-0.085068 0.014282,-0.049127 0.02856,-0.098252 -0.015779,-0.1143378 0.00258,-0.225145 0.021339,-0.1173997 -0.026142,-0.214314 -0.021015,-0.041284 -0.071415,-0.087889 -0.050385,-0.046611 -0.067809,-0.078314 -0.100524,0.037911 -0.1357576,0.089467 -0.016715,0.028176 -0.044807,0.055168 -0.025112,0.020405 -0.055009,0.042613 z m 4.5919507,-1.6551193 0.019313,0.080199 q 0.022208,0.029897 0.024178,0.1221051 -0.026206,0.075495 -0.010508,0.1461212 -0.00473,0.045515 -0.00823,0.079652 -0.00352,0.034138 0.00494,0.085616 0.00252,0.064663 0.036188,0.1394475 0.019208,0.036496 0.028885,0.07659 0.012635,0.033506 0.020505,0.068814 0.020568,0.112532 0.048902,0.2166673 0.028339,0.1041339 0.058475,0.2130561 0.039713,0.1053116 0.071112,0.2465642 0.031396,0.1412531 0.051965,0.2537852 0.071965,0.060343 0.1020251,0.1255539 0.031848,0.070005 0.1139506,0.099186 Q 6.6902457,5.6659546 6.7816646,5.5604031 6.8730816,5.4548491 6.935069,5.300251 6.999024,5.237862 7.029468,5.188105 7.055127,5.140158 7.110684,5.0699961 L 7.1583881,4.9645235 Q 7.249806,4.8589702 7.258751,4.8391942 7.264711,4.8260092 7.275463,4.8110212 7.290998,4.7942242 7.306539,4.7774332 7.4295785,4.6107457 7.4724179,4.4633676 q 0.050141,-0.08452 0.074543,-0.164801 0.018435,-0.067097 0.1104842,-0.1564849 0.033345,-0.1000574 0.09008,-0.1815958 0.056733,-0.081538 0.09008,-0.1815955 0.052655,-0.019857 0.083811,-0.00974 0.017968,0.00416 0.035941,0.00832 0.022759,0.00235 0.045513,0.00471 0.057606,0.065758 0.069147,0.1543554 0.011542,0.088598 -0.011054,0.1736655 -0.024404,0.080282 -0.018987,0.094642 0.00363,0.00958 -0.00236,0.022756 -0.016087,0.044338 -0.044725,0.098881 -0.030445,0.049753 -0.044725,0.098881 -0.015378,0.1042158 -0.0441,0.1150464 -0.028722,0.010832 -0.040648,0.037199 -0.066307,0.085149 -0.090789,0.1217194 -0.025659,0.047947 -0.081215,0.1181091 -0.080667,0.090564 -0.095576,0.1235245 -0.01491,0.032961 -0.027461,0.043164 -0.066145,0.1725698 -0.1437497,0.3002526 -0.071642,0.1144991 -0.1341768,0.2966424 -0.027461,0.043165 -0.054928,0.086325 -0.027461,0.043165 -0.038132,0.1018628 -0.064501,0.089935 -0.095495,0.1672349 -0.030992,0.077299 -0.069127,0.1791618 -0.046611,0.050383 -0.09377,0.1283111 -0.05791,0.092918 -0.1093084,0.1451062 -0.018519,0.023384 -0.06513,0.07377 -0.038846,0.041988 -0.081925,0.058233 -0.1028778,0.060666 -0.2178429,0.060281 -0.103586,7.881e-4 -0.2035632,0.011154 Q 6.2032681,6.549453 6.131383,6.5328208 6.0055054,6.4600027 5.9130547,6.3308379 5.8206055,6.2016725 5.720934,6.0533611 5.6564325,6.1432963 5.6242624,6.2319744 5.5938959,6.3254397 5.4988692,6.4214194 5.4374301,6.5484743 5.3712044,6.6773333 5.3031729,6.8014057 5.2237627,6.9243012 5.1491394,7.0453916 5.0733399,7.1778621 4.9957344,7.3055448 4.9199346,7.4380142 4.8722272,7.5434868 4.8362857,7.5351702 4.789836,7.6729748 4.5551978,7.7177175 4.4641668,7.7083081 4.3575984,7.7156686 4.2833613,7.7217944 4.1827562,7.7159912 4.0091704,7.748643 3.8557489,7.6752801 3.7023355,7.6019334 3.5679799,7.4776362 3.5085689,7.4070908 3.4707427,7.3502766 3.4533389,7.3185688 3.429306,7.2838884 3.405294,7.2492039 3.379471,7.2097317 3.3440146,7.130153 3.3020083,7.0913181 3.2630044,7.0458828 3.2640996,6.9907934 3.2359265,6.9740792 3.2310565,6.9321755 3.2225802,6.8806943 3.2135547,6.856761 3.153434,6.72634 3.1291793,6.5605226 q -0.02426,-0.1658158 -0.01375,-0.311937 0.010671,-0.058702 0.040487,-0.1246203 0.013103,-0.037748 0.00706,-0.068274 -0.00426,-0.025733 0.010671,-0.058702 0.013103,-0.037748 0.03578,-0.079104 0.033429,-0.056347 0.045354,-0.082715 0.0113,-0.042534 0.024402,-0.080282 0.016087,-0.044336 0.040568,-0.08091 0.02448,-0.036571 0.042373,-0.076123 0.017891,-0.039555 0.035781,-0.079104 0.02087,-0.046143 0.027383,-0.086873 0.00949,-0.04732 0.050141,-0.08452 0.013021,-0.081458 0.044644,-0.1425917 0.031623,-0.061134 0.071013,-0.1306645 Q 3.679829,4.8164646 3.8668225,4.5873864 4.0586032,4.3565034 4.1821102,4.118561 4.238295,4.0645655 4.2717227,4.0082202 4.3051516,3.951874 4.3385774,3.8955267 4.4185357,3.7450862 4.5717962,3.7310313 l 0.27419,-0.026853 q 0.1282308,0.050061 0.2516744,0.1019258 0.1234436,0.051865 0.2301738,0.1319044 0.031711,-0.017406 0.070005,-0.031846 0.036498,-0.019209 0.081376,-0.030688 0.089775,-0.022917 0.1764867,-0.082956 0.028722,-0.010832 0.052028,-0.036021 0.023311,-0.025191 0.042455,-0.032411 0.161658,-0.00629 0.197761,0.089451 z M 4.738322,4.4336994 Q 4.5267653,4.6556373 4.3793238,4.9026057 4.2318823,5.149574 4.1126141,5.4132562 4.0977051,5.446218 4.078011,5.480983 4.061297,5.509159 4.046388,5.542117 4.029673,5.570287 4.014765,5.603251 3.999856,5.636213 3.989735,5.667368 3.969493,5.729679 3.961256,5.8093309 q -0.00823,0.079652 -0.015295,0.1479259 -0.00235,0.022759 -0.00471,0.045513 -0.00416,0.017973 -0.010121,0.031155 -0.00596,0.013187 -0.010121,0.031155 -0.00416,0.017973 -0.00832,0.035941 -0.00109,0.05509 0.021744,0.1011519 0.017406,0.031712 0.044482,0.1035136 l 0.036104,0.095737 q 0.010832,0.028722 0.04568,0.092127 0.068437,0.094479 0.1081505,0.19979 0.028883,0.07659 0.084761,0.1812733 0.055878,0.104683 0.1277634,0.1213158 0.07667,0.014826 0.1268921,-0.025985 0.05799,-0.049206 0.099266,-0.070242 Q 4.8451425,6.5148568 5.0354234,6.1205104 5.2257043,5.7261641 5.3218914,5.2852866 5.2142908,5.0579503 5.1348006,4.8036108 5.060706,4.5636388 4.9274476,4.3842517 q -0.04732,-0.00949 -0.096365,0.019939 -0.036496,0.019209 -0.092749,0.02953 z m 3.6653969,-0.1684428 0.075495,0.026208 q 0.038378,0.029268 0.025355,0.110726 -0.00651,0.040727 -0.010045,0.074867 0.00126,0.032332 7.356e-4,0.059876 0.011989,0.017349 0.024015,0.034683 0.010182,0.012561 0.018598,0.020326 0.020405,0.025112 0.013896,0.065839 0.086873,0.027384 0.1276827,0.077605 0.052818,0.067564 0.1157563,0.103973 0.080909,0.040568 0.1366272,0.057829 0.065291,0.013649 0.1330179,0.048255 0.041825,-0.04858 0.065758,-0.057606 0.033508,-0.012635 0.06937,-0.04803 Q 9.2416426,4.7038087 9.2329216,4.521198 9.2280316,4.479295 9.2195776,4.427813 9.2111076,4.376332 9.1966606,4.338038 9.1449337,4.2153777 9.0225672,4.1084303 8.8984139,3.9966883 8.8197768,3.8896524 8.7507949,3.8227169 8.7308554,3.7263514 8.7073056,3.620412 8.6611007,3.555822 8.6382786,3.50975 8.6034953,3.4900637 8.5885064,3.4793156 8.5735176,3.4685613 8.5567214,3.4530255 8.5399305,3.4374876 8.4900937,3.3633311 8.4605852,3.270575 8.4340539,3.1712281 8.356127,3.1240675 8.320344,3.2031725 8.257264,3.4128607 8.192375,3.6177619 8.1274876,3.8226635 8.0673856,4.0257595 8.0345876,4.098272 8.0232866,4.140804 8.0072056,4.185145 7.9941026,4.222894 7.9744066,4.257657 7.9547106,4.292424 7.9386286,4.336762 7.9255256,4.374511 7.9142246,4.417044 7.8332516,4.666284 7.7909602,4.7861179 7.7534542,4.904146 7.7177552,5.0269613 7.6820562,5.1497759 7.6035167,5.4199692 7.5797437,5.5164162 7.5202717,5.7356784 7.4560127,5.9567455 7.4025033,6.1628237 7.3424023,6.3659199 7.3383253,6.4276012 7.3169843,6.5450008 7.2531133,6.6511023 7.1892403,6.7572033 7.0647811,6.804138 q -0.00179,-0.00478 -0.04803,-0.069369 -0.04442,-0.059796 -0.087661,-0.1309711 -0.046222,-0.064582 -0.052818,-0.067564 0.00706,-0.068274 -2.422e-4,-0.1311318 -0.0055,-0.05807 0.041662,-0.1359989 -0.00431,-0.06945 0.032473,-0.2473546 0.03499,-0.1826913 0.091481,-0.3953619 Q 7.0963319,5.4089305 7.1474874,5.2256099 7.1938564,5.0440953 7.2075074,4.9788036 7.2462694,4.8931066 7.308176,4.6947972 7.365296,4.4982934 7.422415,4.3017893 7.482516,4.0986927 7.509899,4.0118198 7.504239,3.8663276 7.566066,3.6243076 7.630873,3.3756955 7.7082359,3.1168813 7.7885809,2.8514749 7.8331441,2.6651732 q 0.018987,-0.094642 0.030834,-0.1647206 0.011842,-0.070078 0.024871,-0.1515361 0.023852,-0.052735 0.034522,-0.1114359 -0.00793,-0.079024 -0.060666,-0.1028781 -0.047951,-0.025657 -0.066631,-0.089692 0.024787,-0.1952467 0.089918,-0.2690168 0.068111,-0.080363 0.1079698,-0.2211481 0.043002,-0.059956 0.069288,-0.091741 0.038846,-0.041987 0.065678,-0.1013143 0.041746,-0.092289 0.1836269,-0.1075184 0.144864,-0.021822 0.1886543,0.021806 0.015598,0.026925 0.028885,0.07659 0.00426,0.025733 0.00848,0.05148 0.00426,0.025733 0.00847,0.051481 0.00668,0.046691 0.011542,0.088598 0.00489,0.041905 0.00974,0.083811 0.00305,0.037117 0.00974,0.083811 0.00489,0.041905 0.011542,0.088597 0.020568,0.1125321 0.042308,0.2136864 0.021745,0.101152 0.130826,0.1584338 0.00848,0.051479 0.048093,0.1130869 0.039629,0.061601 0.080441,0.1118231 0.1346781,0.2991396 0.3393551,0.5664139 0.2046766,0.2672748 0.4038572,0.4764785 0.018052,0.04787 0.050462,0.090323 0.03241,0.042455 0.06961,0.083102 0.144254,0.295528 0.1718145,0.629595 0.012877,0.1646397 0.025759,0.3292793 0.017668,0.1628341 0.033524,0.3208824 -0.021341,0.1173997 -0.012698,0.2562997 0.00801,0.1227332 -0.027141,0.2180047 -0.018987,0.094642 -0.021178,0.2048205 -0.00221,0.1101784 -0.095414,0.2109458 -0.055009,0.042613 -0.1292457,0.048739 -0.06945,0.00431 -0.1196718,0.045129 -0.041284,0.021015 -0.077138,0.056428 -0.028092,0.026994 -0.071175,0.043243 Q 9.3165596,6.0479282 9.2171303,6.0307464 9.1308863,6.0195297 8.9974008,6.0425305 8.9865677,6.0138084 8.952429,6.0102832 8.9182903,6.0067632 8.8919235,5.9948267 8.804262,5.8638557 8.732296,5.8035125 8.6735127,5.7491339 8.6206981,5.6815684 8.5504564,5.5823025 8.5143528,5.4865645 8.4746399,5.3812537 8.3888603,5.2987813 8.3180733,5.2270588 8.3156403,5.2061057 8.313171,5.1851607 8.2987443,5.146865 8.2518076,5.022406 8.1814902,4.8794278 8.1093661,4.7316631 8.2090985,4.5901677 8.2473141,4.5320168 8.2429955,4.4625661 8.24226,4.40269 8.2828555,4.3217801 q 0.011926,-0.026367 0.055009,-0.042614 0.033508,-0.012635 0.065838,-0.013896 z M 11.405367,3.9315807 q 0.09817,-0.015151 0.154275,-0.1128564 0.05909,-0.104296 0.11943,-0.1762609 0.02024,-0.062311 0.05304,-0.1348223 0.0328,-0.072513 0.0758,-0.1324698 0.03452,-0.1114363 0.07564,-0.2198905 0.0459,-0.1102598 0.0984,-0.2175379 0.02024,-0.062311 0.04229,-0.1198334 0.02024,-0.062311 0.04229,-0.1198331 0.02205,-0.057523 0.0441,-0.1150469 0.02024,-0.062311 0.04049,-0.1246199 0.01844,-0.067097 0.02966,-0.1533418 0.0035,-0.034138 0.0071,-0.068274 0.0083,-0.035943 0.01663,-0.071884 0.02016,-0.1060205 0.05233,-0.1946986 0.03334,-0.1000572 0.02235,-0.2161999 0.01483,-0.07667 0.06442,-0.1336461 0.0496,-0.056973 0.06442,-0.1336458 0.0131,-0.037749 0.01538,-0.1042163 0.0011,-0.05509 0.02856,-0.098252 0.02746,-0.043164 0.02503,-0.064117 5.26e-4,-0.027546 0.0095,-0.04732 0.0089,-0.063487 0.03931,-0.1132416 0.03162,-0.0611343 0.04889,-0.11685161 0.08357,-0.14086679 0.116367,-0.21337921 0.0328,-0.0725126 0.102087,-0.16425341 0.150666,-0.12242889 0.335001,-0.17007175 0.184335,-0.0476445 0.300639,0.0287842 0.02823,0.0604314 0.06129,0.11904415 0.03123,0.0538332 0.06067,0.10287751 0.06726,0.10585899 0.073,0.29506111 -0.0022,0.11017861 -0.02353,0.22757821 -0.02016,0.1060211 -0.01396,0.2239683 l -0.01663,0.071884 q -0.01428,0.049126 -0.02024,0.062311 0.0065,0.2927894 -0.01151,0.5784391 -0.0075,0.1395284 -0.01324,0.2838444 -0.0057,0.1443154 -0.01144,0.2886311 0.20677,-0.2201329 0.287985,-0.338242 0.04598,-0.066549 0.09856,-0.1301167 0.05077,-0.068354 0.108132,-0.1337267 L 14.136824,1.895483 q 0.03225,-0.04497 0.0645,-0.089936 0.03704,-0.046775 0.07408,-0.093546 0.04049,-0.1246204 0.112756,-0.2229532 0.07227,-0.098333 0.152309,-0.2050631 0.04175,-0.092288 0.09251,-0.1606428 0.05077,-0.068354 0.109308,-0.14510587 0.01671,-0.0281731 0.03343,-0.0563463 0.01671,-0.0281731 0.02864,-0.0545407 0.03939,-0.0695321 0.06568,-0.10131431 l 0.04292,-0.10366767 q 0.02982,-0.0659222 0.0561,-0.0977041 0.07353,-0.066004 0.139835,-0.15115035 0.03704,-0.0467752 0.05375,-0.0749476 0.02267,-0.0413584 0.06332,-0.0785578 l 0.03272,-0.1162231 q 0.01663,-0.07188357 0.09267,-0.07321983 0.0131,-0.03774909 0.06097,-0.05580057 0.05744,-0.02166211 0.0886,-0.01154101 0.01263,0.03350605 0.03602,0.05202761 0.02338,0.01852009 0.0205,0.0688147 -0.03524,0.0515583 -0.05909,0.1042963 -0.01789,0.0395547 -0.07588,0.088759 -0.07093,0.17437482 -0.143202,0.27270786 -0.06929,0.0917408 -0.08702,0.218714 -0.101378,0.22412964 -0.212329,0.45186984 -0.110952,0.22774 -0.225514,0.4459064 -0.05265,0.019857 -0.09087,0.078008 -0.03822,0.058151 -0.08852,0.055251 -0.06647,-0.00227 -0.06686,0.1126935 -0.149633,0.3571473 -0.37837,0.678514 -0.112676,0.2666634 -0.299042,0.5119074 -0.189347,0.2518357 -0.302651,0.5023339 0.05126,0.1939086 0.03847,0.4064979 -0.01278,0.2125891 0.0025,0.3981814 -0.0076,0.095818 -0.0093,0.1784524 0.0032,0.080829 0.0075,0.1502792 0.01044,0.1436867 -0.01027,0.2772524 0.03265,0.1735853 0.01799,0.3376765 -0.01467,0.1640921 -0.04071,0.3270068 0.01939,0.1239116 -0.01992,0.2371529 -0.03633,0.106649 -0.04503,0.2575563 -0.0041,0.061682 -0.01357,0.1090037 -0.0095,0.04732 -0.01357,0.1090026 -0.01067,0.058702 -0.01177,0.1137898 -0.0011,0.055091 -0.01177,0.1137892 l -0.02205,0.057523 q -0.006,0.013187 -0.01193,0.026368 -0.0041,0.017968 -0.01012,0.031155 l -0.03907,0.2443731 q -0.01639,0.2030153 -0.09337,0.3468638 -0.04237,0.076123 -0.08114,0.1618193 -0.03876,0.085697 -0.08051,0.1779855 -0.02684,0.059329 -0.04527,0.1264255 -0.01546,0.060506 -0.04528,0.1264255 -0.03876,0.085697 -0.06144,0.1270539 -0.01671,0.028176 -0.03162,0.061134 -0.0131,0.037748 -0.02621,0.075495 -0.06576,0.057605 -0.09016,0.1378849 -0.0244,0.080282 -0.047,0.1653488 -0.03704,0.046774 -0.04598,0.066549 -0.0089,0.019775 -0.04598,0.066549 -0.05799,0.049206 -0.07949,0.079186 -0.02448,0.036571 -0.02927,0.038379 -0.0496,0.056973 -0.12736,0.097237 -0.07777,0.040259 -0.114176,0.1032004 -0.09574,0.036104 -0.15326,0.014054 -0.05752,-0.02205 -0.11387,-0.055476 -0.113951,-0.099187 -0.140561,-0.2422448 -0.0314,-0.1412526 -0.04428,-0.3058932 -0.01288,-0.1646395 -0.08861,-0.3219784 -0.0051,-0.1730371 -0.04004,-0.2801531 -0.03133,-0.097536 -0.03391,-0.2059164 0.02667,-0.146749 0.01882,-0.1820629 -0.01148,-0.044882 0.03217,-0.088678 -0.0139,-0.065838 -0.0074,-0.1065691 0.0095,-0.04732 -0.0038,-0.096995 0.0215,-0.029978 0.02982,-0.065922 0.01012,-0.031155 0.03939,-0.069532 0.01177,-0.1137898 0.01937,-0.2096076 0.0076,-0.095817 0.0063,-0.1718603 -0.0013,-0.076042 0.0021,-0.1538893 0.0082,-0.079652 0.01647,-0.1593049 -8.2e-5,-0.043711 -0.0049,-0.085616 0.0017,-0.038925 -0.0013,-0.076042 -0.003,-0.037118 -0.0061,-0.074237 0.0035,-0.034139 0.0071,-0.068274 0.007,-0.1119841 0.04982,-0.2593625 l 0.07854,-0.270193 q 0.01726,-0.055718 0.02856,-0.098253 0.0131,-0.037748 0.01546,-0.060505 0.01067,-0.058701 0.01781,-0.083262 0.05972,-0.088131 0.04472,-0.098881 -0.01018,-0.012561 -6.3e-4,-0.016157 0.08051,-0.1779853 0.162269,-0.3236387 0.03217,-0.088679 0.06795,-0.1677832 0.03578,-0.079105 0.09432,-0.1558559 0.03217,-0.088679 0.06795,-0.1677833 0.03578,-0.079104 0.09432,-0.155856 0.05673,-0.081538 0.102087,-0.1642532 0.04833,-0.089307 0.0871,-0.1750035 0.03696,-0.090484 0.08231,-0.1731988 0.04536,-0.082715 0.0973,-0.1624481 -0.03022,-0.1526322 -0.02324,-0.264616 0.0088,-0.1071972 -0.01963,-0.2550427 0.01302,-0.081457 0.0093,-0.1784525 -0.0038,-0.096995 -0.01351,-0.1808058 0.01789,-0.039555 0.0142,-0.092837 -0.0061,-0.074237 -0.0062,-0.1179465 0.01357,-0.1090028 -0.01351,-0.1808059 -0.01931,-0.080199 -0.02834,-0.1041339 -0.01805,-0.04787 -0.01876,-0.107745 -0.0157,-0.070627 -0.04097,-0.1376433 -0.0543,0.1024911 -0.06913,0.1791615 -0.01899,0.094642 -0.04637,0.1815152 -0.01193,0.026367 -0.02684,0.059329 -0.01491,0.032961 -0.0064,0.084439 -0.03398,0.083891 -0.04175,0.092289 -0.01735,0.011989 -0.0083,0.035943 -0.06316,0.1659781 -0.124522,0.3367426 -0.05838,0.1641724 -0.117929,0.3397239 -0.05477,0.1737466 -0.116125,0.3445111 -0.06316,0.1659776 -0.126327,0.3319556 -0.05728,0.1090833 -0.125941,0.2169897 -0.06866,0.1079065 -0.145089,0.2242106 -0.02746,0.043164 -0.06089,0.099509 -0.03045,0.049753 -0.06866,0.1079066 -0.07941,0.122896 -0.245854,0.1309903 -0.187703,0.1692016 -0.371652,0.1018772 -0.183949,-0.067322 -0.314695,-0.1820454 -0.05996,-0.043002 -0.100138,-0.077057 -0.04018,-0.034056 -0.07032,-0.1429782 -0.01029,-0.056265 -0.01578,-0.1143376 -0.01208,-0.061054 -0.01758,-0.1191242 -0.0055,-0.05807 -0.0146,-0.1257168 -0.0139,-0.065838 -0.02959,-0.1364661 -0.01029,-0.056265 -0.02057,-0.1125316 -0.01029,-0.056265 -0.02535,-0.1107259 -0.02355,-0.1059395 -0.03995,-0.2364432 -0.02182,-0.1448639 -0.02089,-0.2873738 9.46e-4,-0.1425108 0.03546,-0.2539469 -0.0032,-0.080829 -0.0045,-0.1568713 -0.0032,-0.080829 -0.0075,-0.1502792 -0.0013,-0.076042 -0.0057,-0.1454921 -0.0013,-0.076042 -0.0027,-0.1520848 -0.0099,-0.1712323 0.0029,-0.3401102 0.01286,-0.1688787 0.0389,-0.331794 0.0226,-0.085069 0.04582,-0.1539704 0.02323,-0.068902 0.04943,-0.1443963 0.09213,-0.045675 0.140545,-0.091272 0.04842,-0.045597 0.09503,-0.09598 0.02989,-0.022211 0.0598,-0.0444196 0.02989,-0.0222112 0.0616,-0.0396314 0.0299,-0.0222132 0.05681,-0.0378263 0.0299,-0.0222064 0.05501,-0.0426145 0.08726,-0.0875838 0.117786,-0.0936269 0.02573,-0.004256 0.03885,-0.0419872 0.0372,0.0406496 0.08091,0.0405676 0.0485,-0.001886 0.07134,0.044177 0.02527,0.0670165 0.0087,0.18261096 -0.01357,0.10900277 -0.01765,0.17068367 -0.0065,0.040727 -0.01122,0.086244 -0.0047,0.045515 -0.0076,0.095818 -0.004,0.1053916 -0.0284,0.1856727 0.0067,0.046693 0.0086,0.09519 0.0067,0.046691 0.0019,0.092209 -0.0047,0.045514 -0.0028,0.094014 0.0019,0.048497 0.0038,0.096996 -0.05602,0.1414145 -0.07728,0.3025247 -0.02126,0.1611101 -0.04008,0.3431726 -0.0011,0.05509 -0.01059,0.1024106 -0.0065,0.040727 -0.01059,0.1024102 0.0067,0.046691 0.01334,0.093385 0.01148,0.04488 0.01814,0.091578 0.01148,0.04488 0.01814,0.091578 0.0067,0.046691 0.01334,0.093385 -3.85e-4,0.1149651 0.0256,0.2418582 0.0314,0.1412531 0.07237,0.2788969 0.04097,0.1376432 0.09512,0.2812498 z m 1.679536,0.3070625 -0.0096,0.00361 q -0.141559,0.1900734 -0.232187,0.3992139 -0.04292,0.1036676 -0.09243,0.2043535 -0.04292,0.1036676 -0.09063,0.2091404 -0.01907,0.05093 -0.03994,0.097075 -0.01906,0.05093 -0.03813,0.1018626 -0.04112,0.1084541 -0.06489,0.2049014 -0.01538,0.1042154 -0.03373,0.2150226 -0.01836,0.1108073 -0.06607,0.2162805 -0.07815,0.1552274 -0.08042,0.2216954 -0.0017,0.03892 -0.0071,0.068275 -0.0035,0.034139 -0.0089,0.063487 l -0.01585,0.1754706 q -0.0065,0.040732 -0.01302,0.081458 -0.0047,0.045513 -0.016,0.088049 -0.01239,0.097624 -0.01396,0.2239682 -0.0016,0.1263451 -0.01395,0.2239682 -0.002,0.1975997 0.01924,0.3700084 0.02128,0.1724077 0.09222,0.3315523 l 0.02708,0.071803 q 0.01083,0.028722 0.04858,0.041825 0.04308,-0.016244 0.129166,-0.09245 0.05132,-0.095898 0.09785,-0.1899929 0.04653,-0.094094 0.08466,-0.1959559 0.07627,-0.2037251 0.171681,-0.4146709 0.07627,-0.2037245 0.114787,-0.4205529 0.03852,-0.2168279 0.03207,-0.4659073 0.0089,-0.063487 0.01114,-0.1299549 0.0041,-0.061681 -2.43e-4,-0.1311313 -0.0098,-0.1275209 0.01451,-0.2515129 -0.0051,-0.1730371 -0.0084,-0.3412865 0.0015,-0.1700552 0.0066,-0.3305369 0.01254,-0.3437209 -0.0042,-0.6490655 z"
     id="text2-5"
     aria-label="easy"
     inkscape:label="easy" />
</svg>
