<?xml version="1.0" encoding="UTF-8" standalone="no"?>
<!-- Created with Inkscape (http://www.inkscape.org/) -->

<svg
   width="133.942"
   height="49.999874"
   viewBox="0 0 35.438821 13.229134"
   version="1.1"
   id="svg1"
   sodipodi:docname="easytask-logo-light.traced.svg"
   inkscape:version="1.3.2 (091e20ef0f, 2023-11-25)"
   xmlns:inkscape="http://www.inkscape.org/namespaces/inkscape"
   xmlns:sodipodi="http://sodipodi.sourceforge.net/DTD/sodipodi-0.dtd"
   xmlns="http://www.w3.org/2000/svg"
   xmlns:svg="http://www.w3.org/2000/svg">
  <sodipodi:namedview
     id="namedview1"
     pagecolor="#ffffff"
     bordercolor="#000000"
     borderopacity="0.25"
     inkscape:showpageshadow="2"
     inkscape:pageopacity="0.0"
     inkscape:pagecheckerboard="0"
     inkscape:deskcolor="#d1d1d1"
     inkscape:document-units="mm"
     inkscape:zoom="3.28481"
     inkscape:cx="29.986514"
     inkscape:cy="40.337188"
     inkscape:window-width="1920"
     inkscape:window-height="1050"
     inkscape:window-x="0"
     inkscape:window-y="0"
     inkscape:window-maximized="1"
     inkscape:current-layer="svg1" />
  <defs
     id="defs1" />
  <path
     style="font-weight:900;font-size:22.5778px;font-family:Raleway;-inkscape-font-specification:'Raleway Heavy';letter-spacing:0px;word-spacing:0px;fill:#ffffff;stroke-width:0.138941"
     d="M 12.475702,6.6944302 H 10.057004 V 13.096865 H 7.7450135 V 6.6944302 H 5.3144595 V 4.6788486 h 7.1612425 z m 2.015581,-2.0155816 h 2.584687 l 2.679538,8.4180164 h -2.34756 l -0.509824,-1.648034 h -2.240852 l -0.497967,1.648034 h -2.359416 z m 2.039295,5.2286556 -0.746951,-2.9640903 -0.78252,2.9640903 z m 8.927847,-2.4779794 q 0,0 -0.201562,-0.1185636 Q 25.055306,7.1923976 24.723327,7.0501211 24.391348,6.8959886 24.000092,6.777425 23.608831,6.6588608 23.229427,6.6588608 q -0.296411,0 -0.48611,0.094851 -0.189705,0.094851 -0.189705,0.320122 0,0.2134143 0.189705,0.3438344 0.189699,0.13042 0.533535,0.2371272 0.355689,0.1067071 0.8418,0.2608396 0.782522,0.2371272 1.351625,0.5453927 0.569109,0.3082655 0.877373,0.7943764 0.308264,0.4742544 0.308264,1.2686309 0,0.758807 -0.272697,1.280487 -0.272697,0.509823 -0.735093,0.818089 -0.462395,0.308265 -1.031504,0.450542 -0.569103,0.13042 -1.161921,0.13042 -0.604675,0 -1.268633,-0.118564 -0.652101,-0.13042 -1.26863,-0.343835 -0.61653,-0.22527 -1.126354,-0.521679 l 0.995934,-2.027438 q 0,0 0.237128,0.142276 0.237125,0.142276 0.628386,0.320122 0.391261,0.177845 0.865515,0.320122 0.486111,0.142276 0.972222,0.142276 0.379403,0 0.521678,-0.09485 0.154132,-0.106707 0.154132,-0.272696 0,-0.248984 -0.260839,-0.379404 -0.26084,-0.142277 -0.687668,-0.26084 Q 22.802599,9.9786424 22.292773,9.812653 21.55768,9.5636698 21.083425,9.2554043 20.609171,8.9352824 20.3839,8.5084533 20.158629,8.0697682 20.158629,7.4532372 q 0,-0.9366524 0.438686,-1.5650398 0.438685,-0.628387 1.150065,-0.9485091 0.72324,-0.3319779 1.553187,-0.3319779 0.616528,0 1.185636,0.1541325 0.580961,0.1422765 1.078929,0.3556908 0.509821,0.213415 0.889225,0.4031169 z m 2.217146,5.6673402 V 4.6788486 h 2.31199 v 3.2012177 l 2.560971,-3.2012177 h 2.608402 l -3.05894,3.7703228 3.272354,4.6476936 h -2.655827 l -2.086718,-3.09451 -0.640242,0.663956 v 2.430554 z"
     id="text1-5-7"
     aria-label="TASK"
     inkscape:label="TASK" />
  <path
     style="font-size:19.9429px;font-family:Fasthand;-inkscape-font-specification:Fasthand;letter-spacing:0px;word-spacing:0px;fill:#cccccc;stroke-width:0.122726"
     d="m 0.04561883,6.6596097 q 0.04957156,-0.056948 0.09898001,-0.2012801 0.0476049,-0.1491158 0.0940334,-0.2868573 0.0446248,-0.1425265 0.0822737,-0.1731198 0.010666,-0.058675 0.0219579,-0.101188 0.0112946,-0.042515 0.0483139,-0.089267 Q 0.41540692,5.6402718 0.50372184,5.497665 0.59501726,5.3484682 0.66176079,5.1921347 0.73823557,5.1195754 0.81110148,5.037445 0.88875109,4.9535098 0.95620471,4.857027 1.0958948,4.6622544 1.3237559,4.5708612 q 0.1233078,0.00815 0.216569,-0.048879 0.088477,-0.055226 0.2046474,-0.022523 0.086914,0.071061 0.1276251,0.07757 0.040708,0.00651 0.077264,0.030978 0.083386,0.1051832 0.1169603,0.1362433 0.038359,0.029255 0.059384,0.070513 0.031832,0.069973 0.056485,0.1207923 0.02281,0.046049 0.040241,0.077732 0.028223,0.060404 0.045109,0.1196181 0.063312,0.2548465 0.08835,0.5241266 0.00126,0.032317 0.00252,0.064634 0.00126,0.032317 0.00432,0.069418 0.00432,0.069418 -0.00635,0.1280921 -0.037488,0.1179744 -0.044544,0.1862171 -0.014193,0.092795 -0.024309,0.1239357 -0.035764,0.079069 -0.070352,0.1467633 -0.029804,0.065893 -0.058431,0.1204079 -0.034041,0.040162 -0.066277,0.08511 -0.034041,0.040162 -0.066277,0.08511 -0.061492,0.083306 -0.162518,0.1487293 l -0.066277,0.08511 q -0.032236,0.044946 -0.083064,0.069578 -0.062668,0.09468 -0.1534962,0.1726534 -0.040631,0.037185 -0.086044,0.076168 -0.040631,0.037185 -0.08424,0.080954 -0.060944,0.055775 -0.099141,0.1138988 -0.038197,0.058125 -0.105102,0.1270771 -0.03765,0.030594 -0.1261264,0.085817 -0.0854973,0.048638 -0.11655719,0.082209 0.0839354,0.07765 0.12849459,0.2248013 0.045755,0.1357686 0.1380659,0.221191 0.1352289,-0.018201 0.2889671,-0.059786 0.1537383,-0.04158 0.2805001,-0.1112233 0.022127,-0.01379 0.042436,-0.032395 0.0251,-0.020396 0.050199,-0.040792 0.0251,-0.020396 0.050199,-0.040792 0.0251,-0.020396 0.052003,-0.036003 0.09804,-0.058837 0.1876916,-0.1254383 Q 2.2523333,7.6418768 2.3108457,7.5651616 2.5522712,7.3648147 2.749297,7.1046998 2.9463228,6.8445848 3.0655368,6.5810224 3.1515,6.4611627 3.2397346,6.2748648 3.3279688,6.0885668 3.3612195,5.944864 3.4470212,5.7376232 3.5245913,5.6099984 3.602161,5.4823736 3.7014638,5.4558554 3.7780185,5.4269836 3.8840722,5.4908293 3.9901255,5.554674 3.9436983,5.692415 3.8744414,5.7841138 3.8076978,5.9404471 3.7457391,6.0949755 3.6489496,6.1861272 3.5874574,6.2694328 3.5130295,6.4778504 3.4397775,6.6748937 3.384327,6.7887117 3.372406,6.8150677 3.357504,6.8480137 3.342602,6.8809607 3.318132,6.9175137 3.273975,6.9888187 3.255545,7.0558832 3.1541326,7.2362209 3.0478544,7.3746719 q -0.059849,7.352e-4 -0.078907,0.051615 -0.023215,0.068871 -0.047685,0.1054253 -0.010745,0.014977 -0.021493,0.029964 -0.010745,0.014977 -0.026274,0.031765 -0.015531,0.016783 -0.026273,0.031771 -0.010745,0.014977 -0.021493,0.029964 -0.051294,0.095855 -0.1169425,0.1971241 -0.065649,0.1012784 -0.1432996,0.185212 -0.074042,0.093504 -0.1516919,0.1774379 -0.075846,0.088719 -0.1571054,0.1630839 -0.08126,0.074364 -0.1571055,0.1630834 -0.071061,0.086914 -0.138514,0.1833982 l -0.099851,0.054048 q -0.022127,0.01379 -0.046051,0.022812 -0.022127,0.01379 -0.04424,0.027612 -0.045415,0.038986 -0.093262,0.057029 -0.047848,0.018044 -0.126835,0.025973 Q 1.2025617,8.9449532 0.91860399,8.8006402 0.87906721,8.7827542 0.83655486,8.7714638 0.79701813,8.7535777 0.754506,8.7422853 0.65629846,8.7137385 0.6095465,8.6767181 0.53941874,8.6211868 0.43861735,8.4843155 0.33302969,8.3492485 0.23999424,8.2039839 0.14515517,8.0539333 0.11267686,7.9678088 0.11973466,7.8995656 0.10089969,7.7481796 0.08025984,7.5920085 0.05185904,7.4442301 0.02165231,7.2916668 0,7.2342502 0.01192106,7.2078938 0.02964222,7.0809784 0.04077347,6.9510824 0.04712076,6.8229908 0.05644766,6.6883098 0.04562413,6.6596013 Z M 1.3553357,5.4661654 q -0.034507,0.111386 -0.072623,0.2132021 -0.038117,0.101816 -0.09898,0.2012805 -0.017721,0.1269154 -0.061797,0.2419102 -0.044077,0.1149943 -0.091763,0.220419 -0.00941,0.09099 -0.0410156,0.152096 Q 0.9575483,6.5561802 0.9181765,6.6256787 0.8956709,6.7543984 0.8408488,6.8843752 0.7860266,7.0143521 0.8855723,7.1189057 0.99805282,7.0983467 1.0852726,7.0108043 q 0.087219,-0.087544 0.14934,-0.1546902 0.029255,-0.038361 0.060316,-0.071932 0.035845,-0.035378 0.066905,-0.068951 0.03106,-0.033572 0.062121,-0.067147 0.03106,-0.033572 0.055531,-0.070127 L 1.6344635,6.2353259 q 0.037569,-0.074284 0.06792,-0.1677067 0.011295,-0.042515 0.022588,-0.08503 0.014275,-0.049105 0.028547,-0.098208 -0.015772,-0.1142853 0.00258,-0.2250423 0.021329,-0.1173463 -0.02613,-0.2142167 -0.021005,-0.041265 -0.071382,-0.087849 -0.050362,-0.04659 -0.067778,-0.078278 -0.1004784,0.037894 -0.135696,0.089426 -0.016707,0.028163 -0.044787,0.055143 -0.0251,0.020402 -0.054984,0.042594 z m 4.589867,-1.6543686 0.019304,0.080163 q 0.022197,0.029883 0.024167,0.1220496 -0.026194,0.075461 -0.010503,0.1460549 -0.00473,0.045494 -0.00823,0.079615 -0.00352,0.034123 0.00494,0.085577 0.00252,0.064634 0.036171,0.139384 0.019199,0.036481 0.028872,0.076555 0.012629,0.033493 0.020496,0.068783 0.020559,0.112481 0.048879,0.2165687 0.028326,0.1040868 0.058449,0.2129596 0.039695,0.1052635 0.071079,0.2464527 0.031382,0.141189 0.051941,0.25367 0.071932,0.060316 0.1019789,0.1254964 0.031834,0.069974 0.1138988,0.099142 0.1805614,-0.1008845 0.2719383,-0.206388 0.091376,-0.1055062 0.1533354,-0.2600341 0.063925,-0.062361 0.094356,-0.1120952 0.025647,-0.047924 0.081178,-0.1180558 l 0.047687,-0.1054248 q 0.091376,-0.1055056 0.1003173,-0.1252722 0.00596,-0.013181 0.016705,-0.028163 0.015528,-0.016788 0.031062,-0.033572 0.1229842,-0.1666118 0.1658041,-0.3139233 0.050119,-0.084482 0.074509,-0.1647262 0.018427,-0.067066 0.1104346,-0.1564139 0.03333,-0.100012 0.090039,-0.1815133 0.056707,-0.081501 0.090038,-0.1815131 0.052632,-0.019848 0.083773,-0.00973 0.017959,0.00415 0.03593,0.00831 0.022743,0.00235 0.045492,0.00471 0.057579,0.065728 0.069115,0.1542853 0.011537,0.088557 -0.011049,0.1735867 -0.024392,0.080245 -0.018978,0.094599 0.00362,0.00957 -0.00236,0.022746 -0.01608,0.044318 -0.044705,0.098836 -0.030432,0.04973 -0.044705,0.098836 -0.015371,0.1041684 -0.04408,0.1149946 -0.028709,0.010828 -0.04063,0.037185 -0.066277,0.08511 -0.090748,0.1216645 -0.025648,0.047924 -0.081178,0.1180553 -0.080631,0.090523 -0.095533,0.1234684 -0.014903,0.032947 -0.027449,0.043145 -0.066115,0.1724917 -0.143685,0.3001167 -0.071609,0.1144471 -0.1341159,0.2965073 -0.027449,0.043145 -0.054902,0.086286 -0.027449,0.043145 -0.038119,0.1018166 -0.064472,0.089894 -0.095451,0.1671589 -0.030978,0.077265 -0.069096,0.1790806 -0.04659,0.05036 -0.093728,0.1282528 -0.057883,0.092876 -0.1092587,0.1450403 -0.018511,0.023374 -0.0651,0.073736 -0.038828,0.041969 -0.081887,0.058207 Q 6.5787648,6.5787029 6.4638519,6.5783174 6.3603129,6.5791051 6.2603811,6.589466 6.2004523,6.5464838 6.1285998,6.5298591 6.0027789,6.457074 5.9103706,6.3279679 5.8179634,6.1988611 5.7183366,6.050617 5.6538644,6.1405114 5.6217089,6.2291493 5.5913561,6.3225721 5.4963726,6.4185082 5.4349614,6.545505 5.3687657,6.6743061 5.3007651,6.7983216 5.221391,6.9211619 5.1468015,7.0421973 5.0710368,7.1746071 4.9934662,7.3022319 4.917701,7.4346417 4.8700136,7.5400665 4.8340897,7.5317536 4.7876627,7.6694951 4.5531296,7.7142181 4.4621397,7.704813 4.3556199,7.7121701 4.2814166,7.7182932 4.1808571,7.712493 4.0073501,7.7451301 3.8539982,7.6718004 3.7006555,7.5984834 3.5663608,7.4742426 3.5069768,7.4037292 3.4691678,7.3469413 3.4517719,7.3152479 3.42775,7.2805833 3.4037487,7.245914 3.3779374,7.2064602 3.3424972,7.1269176 3.3005098,7.0881003 3.2615234,7.0426867 3.2626183,6.9876212 3.234458,6.9709167 3.22959,6.92903 3.2211175,6.8775721 3.2120962,6.8536497 3.1520028,6.7232879 3.1277592,6.5575458 3.1035106,6.3918052 3.1140159,6.2457503 q 0.010666,-0.058675 0.040468,-0.1245638 0.013097,-0.037731 0.00706,-0.068243 -0.00425,-0.025721 0.010666,-0.058675 0.013097,-0.037731 0.035764,-0.079069 0.033414,-0.056321 0.045334,-0.082676 0.011295,-0.042515 0.024391,-0.080246 0.01608,-0.044316 0.040549,-0.080873 0.024469,-0.036555 0.042354,-0.076088 0.017883,-0.039537 0.035764,-0.079069 0.020861,-0.046123 0.027371,-0.086834 0.00949,-0.047299 0.050118,-0.084481 0.013015,-0.081421 0.044624,-0.1425273 0.031609,-0.061107 0.070981,-0.1306054 0.0887,-0.2575208 0.2756085,-0.4864953 0.1916931,-0.2307781 0.315144,-0.4686125 0.056159,-0.053971 0.089572,-0.1102907 0.033414,-0.056321 0.066824,-0.1126424 0.079922,-0.1503722 0.233113,-0.1644207 L 4.8437874,3.702497 q 0.1281725,0.050038 0.25156,0.1018796 0.1233875,0.051842 0.230069,0.1318446 0.031697,-0.017398 0.069974,-0.031832 0.036481,-0.0192 0.081339,-0.030674 0.089734,-0.022907 0.1764065,-0.082918 0.028709,-0.010827 0.052004,-0.036005 0.023295,-0.025179 0.042436,-0.032397 0.1615846,-0.00628 0.1976713,0.089411 z M 4.7361718,4.4316874 Q 4.524711,4.6535246 4.3773365,4.900381 4.2299619,5.1472368 4.1107479,5.4107995 q -0.014902,0.032947 -0.034587,0.067696 -0.016707,0.028163 -0.031609,0.061106 -0.016707,0.028163 -0.031609,0.061107 -0.014902,0.032947 -0.025018,0.064088 -0.020232,0.062282 -0.028466,0.1418985 -0.00823,0.079616 -0.015287,0.1478587 -0.00235,0.022749 -0.00471,0.045492 -0.00416,0.017965 -0.010116,0.03114 -0.00596,0.013181 -0.010116,0.03114 -0.00416,0.017965 -0.00831,0.035924 -0.00109,0.055065 0.021734,0.1011061 0.017398,0.031697 0.044462,0.1034665 l 0.036087,0.095694 q 0.010827,0.028709 0.045659,0.092085 0.068406,0.094436 0.1081014,0.1996994 0.02887,0.076556 0.084722,0.181191 0.055853,0.1046355 0.1277055,0.1212607 0.076635,0.014819 0.1268349,-0.025973 0.057964,-0.049184 0.099221,-0.07021 Q 4.842944,6.5118917 5.0331385,6.1177243 5.2233329,5.7235564 5.3194766,5.2828796 5.2119244,5.0556462 5.1324706,4.8014222 5.0584095,4.561559 4.9252114,4.3822531 q -0.047299,-0.00949 -0.096322,0.01993 -0.036481,0.019201 -0.092707,0.029517 z M 8.3999055,4.263321 8.4753665,4.289517 q 0.038361,0.029255 0.025343,0.1106757 -0.00651,0.040708 -0.010041,0.074833 0.00126,0.032317 7.352e-4,0.059849 0.011984,0.01734 0.024004,0.034669 0.010177,0.012556 0.01859,0.020317 0.020396,0.025101 0.01389,0.065809 0.086833,0.02737 0.1276243,0.07757 0.052794,0.067533 0.1157037,0.103926 0.080873,0.040551 0.1365657,0.057803 0.065262,0.013643 0.1329575,0.048234 0.041806,-0.048559 0.065728,-0.05758 0.033493,-0.01263 0.069338,-0.048008 0.041643,-0.1359371 0.032926,-0.3184652 -0.00488,-0.041885 -0.013338,-0.093342 Q 9.2069219,4.3743491 9.192486,4.3360729 9.1407839,4.2134648 9.018473,4.1065659 8.894376,3.9948746 8.8157745,3.8878873 8.746824,3.8209822 8.7268936,3.7246604 8.7033545,3.618769 8.6571706,3.5542084 8.6343588,3.5081573 8.5995907,3.4884799 8.5846086,3.4777367 8.5696266,3.4669872 8.5528381,3.4514585 8.5360548,3.4359277 8.4862406,3.3618048 8.4567454,3.2690907 8.4302262,3.169789 8.3523347,3.1226498 8.3165731,3.2017185 8.2535166,3.4113119 8.1886574,3.6161202 8.1237992,3.8209287 8.063725,4.0239325 8.0309414,4.0964121 q -0.011296,0.042513 -0.02737,0.086834 -0.013097,0.037732 -0.032784,0.07248 -0.019687,0.034751 -0.035762,0.079069 -0.013097,0.037732 -0.024393,0.080245 Q 7.8296971,4.6641664 7.7874249,4.7839463 7.7499356,4.9019207 7.7142533,5.0246801 7.6785705,5.147439 7.6000667,5.4175102 7.5763044,5.5139131 7.5168587,5.7330761 7.4526291,5.9540428 7.3991437,6.160027 7.3390706,6.3630315 7.3349945,6.4246849 7.3136635,6.5420312 7.2498215,6.6480846 7.1859773,6.7541374 7.0615747,6.8010507 7.0597893,6.796272 7.013567,6.7317126 6.969167,6.6719445 6.9259453,6.6008015 6.8797441,6.5362484 6.8731516,6.5332683 6.8802094,6.4650251 6.8729095,6.402196 6.8674113,6.3441519 6.9145526,6.2662589 6.9102465,6.1968404 6.9470163,6.0190165 6.9819902,5.8364082 7.0384557,5.6238341 7.0931164,5.4064766 7.1442491,5.2232389 7.1905974,5.0418068 7.204242,4.9765442 7.2429863,4.8908866 7.3048649,4.692667 7.3619585,4.4962523 7.4190516,4.2998374 7.4791258,4.096833 7.5064963,4.0099995 q -0.00566,-0.1454262 0.056142,-0.3873363 0.064777,-0.2484993 0.1421054,-0.507196 0.080308,-0.265286 0.1248515,-0.4515031 0.018978,-0.094599 0.03082,-0.1646459 0.011837,-0.070046 0.02486,-0.1514674 0.023841,-0.052711 0.034506,-0.1113853 -0.00792,-0.078988 -0.060638,-0.1028314 -0.047929,-0.025645 -0.066602,-0.089652 0.024776,-0.195158 0.089878,-0.2688946 0.06808,-0.080327 0.1079207,-0.2210479 0.042982,-0.059929 0.069257,-0.091699 0.038828,-0.041968 0.065648,-0.1012684 0.041727,-0.092247 0.1835432,-0.1074695 0.1447987,-0.021812 0.1885691,0.021796 0.015591,0.026913 0.028872,0.076555 0.00425,0.025722 0.00848,0.051456 0.00425,0.025721 0.00847,0.051458 0.00667,0.04667 0.011537,0.088557 0.00488,0.041886 0.00973,0.083773 0.00305,0.0371 0.00973,0.083773 0.00488,0.041886 0.011537,0.088557 0.020559,0.1124811 0.042289,0.2135895 0.021735,0.1011061 0.1307666,0.1583619 0.00848,0.051456 0.048071,0.1130355 0.039616,0.061573 0.080404,0.1117724 0.1346169,0.2990039 0.3392011,0.5661568 0.2045837,0.2671536 0.4036739,0.4762623 0.018044,0.047848 0.050439,0.090282 0.032395,0.042435 0.069578,0.083064 0.1441885,0.2953939 0.1717365,0.6293093 0.012871,0.164565 0.025747,0.32913 0.01766,0.1627599 0.033509,0.3207369 -0.021331,0.1173463 -0.012692,0.2561833 0.00801,0.1226777 -0.027128,0.2179059 -0.018978,0.094599 -0.021168,0.2047276 -0.00221,0.1101283 -0.095372,0.21085 -0.054984,0.042594 -0.1291865,0.048717 -0.069418,0.00431 -0.1196181,0.045109 -0.041265,0.021005 -0.077102,0.056402 -0.028079,0.026981 -0.071143,0.043224 Q 9.3123372,6.0451839 9.212953,6.02801 9.1267482,6.0167984 8.9933233,6.0397887 8.982495,6.0110797 8.9483718,6.007556 8.9142486,6.0040376 8.8878938,5.9921066 8.8002721,5.8611945 8.7283388,5.8008792 8.6695821,5.7465252 8.6167915,5.6789904 8.5465816,5.5797691 8.5104944,5.484075 8.4707996,5.378812 8.3850589,5.2963771 8.314304,5.2246867 8.3118721,5.2037433 8.309404,5.1828062 8.2949838,5.1445292 8.2480684,5.0201267 8.1777829,4.8772137 8.1056915,4.7295162 8.2053787,4.5880846 q 0.038198,-0.058124 0.033882,-0.1275434 -7.352e-4,-0.059849 0.039842,-0.1407223 0.01192,-0.026355 0.054984,-0.042595 0.033493,-0.012629 0.065809,-0.01389 z M 11.400191,3.9297965 q 0.09813,-0.015144 0.154206,-0.1128051 0.05906,-0.1042488 0.119375,-0.1761809 0.02023,-0.062283 0.05302,-0.1347612 0.03278,-0.07248 0.07577,-0.1324096 0.03451,-0.1113858 0.0756,-0.2197907 0.04588,-0.1102098 0.09835,-0.2174392 0.02023,-0.062283 0.04227,-0.119779 0.02023,-0.062283 0.04227,-0.1197788 0.02203,-0.057497 0.04407,-0.1149947 0.02023,-0.062283 0.04047,-0.1245632 0.01843,-0.067067 0.02964,-0.1532723 0.0035,-0.034122 0.0071,-0.068243 0.0083,-0.035927 0.01663,-0.071851 0.02015,-0.1059724 0.05231,-0.1946102 0.03333,-0.1000118 0.02234,-0.2161018 0.01482,-0.076635 0.06439,-0.1335855 0.04957,-0.056947 0.06439,-0.1335851 0.0131,-0.037732 0.01537,-0.1041689 0.0011,-0.055066 0.02855,-0.098207 0.02745,-0.043144 0.02502,-0.064088 5.25e-4,-0.027534 0.0095,-0.047299 0.0089,-0.063459 0.03929,-0.1131903 0.03161,-0.0611064 0.04886,-0.11679854 0.08353,-0.14080286 0.116314,-0.21328238 0.03278,-0.0724797 0.102041,-0.16417886 0.150597,-0.12237332 0.334849,-0.16999454 0.184251,-0.0476228 0.300502,0.028771 0.02822,0.0604039 0.06127,0.1189901 0.03122,0.0538088 0.06064,0.10283087 0.06723,0.1058109 0.07297,0.2949272 -0.0022,0.11012855 -0.02352,0.22747485 -0.02016,0.105973 -0.01395,0.2238667 l -0.01663,0.071851 q -0.01427,0.049104 -0.02023,0.062283 0.0065,0.2926566 -0.0115,0.5781766 -0.0075,0.1394651 -0.01324,0.2837155 -0.0057,0.14425 -0.01144,0.2885002 0.206677,-0.220033 0.287855,-0.3380885 0.04596,-0.066519 0.09851,-0.1300577 0.05074,-0.068323 0.108083,-0.133666 L 14.13045,1.8946229 q 0.03224,-0.044949 0.06447,-0.089895 0.03702,-0.046754 0.07404,-0.093504 0.04047,-0.1245638 0.112706,-0.2228521 0.07224,-0.098288 0.15224,-0.2049699 0.04173,-0.092247 0.09247,-0.1605699 0.05075,-0.068323 0.109259,-0.14504005 0.01671,-0.0281603 0.03341,-0.0563207 0.01671,-0.0281603 0.02863,-0.0545159 0.03937,-0.0695005 0.06565,-0.10126834 l 0.0429,-0.10362056 q 0.0298,-0.0658923 0.05608,-0.0976597 0.07349,-0.0659741 0.139771,-0.1510818 0.03702,-0.0467537 0.05373,-0.0749136 0.02266,-0.0413396 0.0633,-0.0785222 l 0.0327,-0.11617037 q 0.01663,-0.07185093 0.09263,-0.07318655 0.0131,-0.0377319 0.06094,-0.05577528 0.05742,-0.02165231 0.08856,-0.01153561 0.01263,0.03349092 0.036,0.05200398 0.02337,0.01851148 0.0205,0.06878346 -0.03522,0.051535 -0.05906,0.10424894 -0.01788,0.0395368 -0.07585,0.0887187 -0.0709,0.17429572 -0.143137,0.27258416 -0.06926,0.0916991 -0.08698,0.21861469 -0.101332,0.22402803 -0.212233,0.45166483 -0.110901,0.2276366 -0.225411,0.4457039 -0.05263,0.019848 -0.09083,0.077972 -0.0382,0.058125 -0.08848,0.055225 -0.06644,-0.00227 -0.06682,0.1126424 -0.149565,0.3569852 -0.378199,0.678206 -0.112625,0.2665424 -0.298905,0.5116751 -0.189261,0.2517214 -0.302514,0.5021059 0.05123,0.1938206 0.03846,0.4063134 -0.01278,0.2124927 0.0025,0.3980007 -0.0076,0.095775 -0.0092,0.1783718 0.0031,0.080792 0.0075,0.1502108 0.01044,0.1436214 -0.01026,0.2771266 0.03264,0.1735068 0.01798,0.3375235 -0.01466,0.1640176 -0.04069,0.3268584 0.01938,0.1238549 -0.01991,0.2370453 -0.03631,0.1066006 -0.04501,0.2574394 -0.0041,0.061654 -0.01356,0.1089542 -0.0095,0.047299 -0.01356,0.1089531 -0.01067,0.058675 -0.01176,0.1137382 -0.0011,0.055066 -0.01176,0.1137376 l -0.02204,0.057497 q -0.006,0.013181 -0.01192,0.026356 -0.0041,0.01796 -0.01012,0.031141 l -0.03905,0.2442622 q -0.01638,0.2029231 -0.09332,0.3467058 -0.04235,0.076089 -0.0811,0.1617464 -0.03875,0.085658 -0.08047,0.1779047 -0.02682,0.059302 -0.04525,0.1263682 -0.01545,0.060478 -0.04525,0.1263681 -0.03874,0.085658 -0.06141,0.1269962 -0.01671,0.028163 -0.03161,0.061107 -0.0131,0.037731 -0.02619,0.07546 -0.06573,0.05758 -0.09012,0.1378229 -0.02439,0.080245 -0.04698,0.1652737 -0.03702,0.046753 -0.04596,0.066519 -0.0089,0.019766 -0.04596,0.066519 -0.05796,0.049184 -0.07945,0.079149 -0.02447,0.036555 -0.02926,0.038361 -0.04957,0.056948 -0.127302,0.097193 -0.07773,0.040241 -0.114124,0.1031541 -0.09569,0.036087 -0.153191,0.014047 -0.0575,-0.022035 -0.113818,-0.055451 -0.113899,-0.099141 -0.140498,-0.2421349 -0.03138,-0.1411884 -0.04425,-0.3057543 -0.01287,-0.1645653 -0.08857,-0.3218323 -0.0051,-0.1729585 -0.04002,-0.2800259 -0.03132,-0.097492 -0.0339,-0.2058229 0.02666,-0.1466825 0.01882,-0.1819804 -0.01147,-0.044862 0.03215,-0.088638 -0.01389,-0.065809 -0.0074,-0.1065207 0.0095,-0.047299 -0.0038,-0.096951 0.02149,-0.029964 0.02981,-0.065893 0.01011,-0.03114 0.03937,-0.0695 0.01176,-0.1137382 0.01936,-0.2095126 0.0076,-0.095774 0.0063,-0.1717822 -0.0013,-0.076008 0.0021,-0.1538195 0.0082,-0.079616 0.01646,-0.1592326 -8.2e-5,-0.043691 -0.0049,-0.085577 0.0017,-0.038907 -0.0013,-0.076008 -0.003,-0.037101 -0.0061,-0.074203 0.0035,-0.034123 0.0071,-0.068243 0.007,-0.1119338 0.04979,-0.2592448 l 0.0785,-0.2700704 q 0.01725,-0.055693 0.02855,-0.098208 0.0131,-0.037731 0.01545,-0.060478 0.01067,-0.058675 0.0178,-0.083225 0.05969,-0.088091 0.0447,-0.098836 -0.01018,-0.012556 -6.3e-4,-0.016148 0.08047,-0.1779048 0.162195,-0.3234923 0.03215,-0.088638 0.06792,-0.1677066 0.03576,-0.079069 0.09427,-0.1557855 0.03215,-0.088638 0.06792,-0.1677072 0.03576,-0.079068 0.09428,-0.1557852 0.05671,-0.081501 0.102041,-0.1641787 0.04831,-0.089267 0.08706,-0.174924 0.03694,-0.090443 0.08227,-0.1731202 0.04533,-0.082678 0.09726,-0.1623745 -0.0302,-0.1525629 -0.02323,-0.2644959 0.0088,-0.1071485 -0.01962,-0.2549269 0.01302,-0.08142 0.0092,-0.1783715 Q 12.87151,2.6426827 12.86181,2.55891 12.87969,2.519373 12.876,2.466115 12.8699,2.391912 12.8698,2.348222 12.88336,2.2392687 12.8563,2.1674983 12.837,2.0873353 12.82797,2.0634117 12.80993,2.0155637 12.80922,1.9557155 12.79353,1.8851205 12.76827,1.8181347 12.714,1.9205792 12.69917,1.9972149 q -0.01898,0.094599 -0.04635,0.1814327 -0.01192,0.026355 -0.02682,0.059302 -0.0149,0.032946 -0.0064,0.084401 -0.03396,0.083853 -0.04173,0.092247 -0.01734,0.011984 -0.0083,0.035927 -0.06314,0.1659027 -0.124465,0.3365898 -0.05835,0.1640978 -0.117876,0.3395697 -0.05474,0.1736677 -0.116073,0.3443548 -0.06313,0.1659022 -0.12627,0.3318049 -0.05725,0.1090338 -0.125883,0.2168912 -0.06863,0.1078576 -0.145023,0.2241088 -0.02745,0.043144 -0.06086,0.099464 -0.03043,0.04973 -0.06863,0.1078575 -0.07937,0.12284 -0.245742,0.1309308 Q 11.25113,4.7512206 11.067263,4.6839268 10.883399,4.6166358 10.752712,4.5019644 10.692782,4.4589824 10.65262,4.4249424 10.61246,4.3909014 10.58233,4.2820291 10.57205,4.2257901 10.56656,4.1677434 10.55448,4.1067174 10.54898,4.0486733 10.54348,3.9906293 10.53439,3.9230135 10.5205,3.8572055 10.50481,3.7866094 10.49453,3.7303704 10.48425,3.6741289 10.47397,3.6178899 10.45891,3.5634532 10.43537,3.4575618 10.41897,3.3271172 10.39716,3.1823192 10.39809,3.0398739 q 9.46e-4,-0.1424461 0.03544,-0.2538316 -0.0032,-0.080793 -0.0045,-0.1568001 -0.0032,-0.080793 -0.0075,-0.150211 -0.0013,-0.076008 -0.0057,-0.1454262 -0.0013,-0.076008 -0.0027,-0.1520158 -0.0099,-0.1711546 0.0029,-0.3399558 0.01286,-0.168802 0.03889,-0.3316434 0.02259,-0.08503 0.0458,-0.1539005 0.02322,-0.068871 0.04941,-0.1443308 0.09209,-0.045654 0.140481,-0.09123 0.0484,-0.045576 0.09498,-0.095936 0.02988,-0.022201 0.05977,-0.044399 0.02988,-0.0222011 0.06157,-0.0396135 0.02989,-0.0222032 0.05679,-0.0378091 0.02989,-0.0221963 0.05498,-0.0425952 0.08722,-0.087544 0.117733,-0.0935845 0.02572,-0.004254 0.03883,-0.0419681 0.03718,0.0406312 0.08087,0.0405492 0.04847,-0.001885 0.0713,0.0441569 0.02526,0.0669861 0.0087,0.18252808 -0.01356,0.10895325 -0.01764,0.17060625 -0.0065,0.040708 -0.01121,0.086205 -0.0047,0.045494 -0.0076,0.095775 -0.004,0.1053437 -0.02838,0.1855884 0.0067,0.046672 0.0086,0.095147 0.0067,0.04667 0.0019,0.092167 -0.0047,0.045494 -0.0028,0.093971 0.0019,0.048475 0.0038,0.096952 -0.056,0.1413504 -0.07725,0.3023875 -0.02125,0.161037 -0.04006,0.3430168 -0.0011,0.055065 -0.01059,0.1023642 -0.0065,0.040708 -0.01058,0.1023637 0.0067,0.04667 0.01334,0.093342 0.01147,0.04486 0.01813,0.091537 0.01148,0.04486 0.01813,0.091537 0.0067,0.04667 0.01334,0.093342 -3.85e-4,0.1149129 0.02559,0.2417484 0.03138,0.141189 0.07233,0.2787703 0.04095,0.1375808 0.09508,0.2811222 z m 1.678774,0.3069232 -0.0096,0.00361 q -0.141494,0.1899871 -0.232081,0.3990322 -0.0429,0.103621 -0.09239,0.2042607 -0.0429,0.103621 -0.09059,0.2090457 -0.01906,0.050906 -0.03992,0.097032 -0.01906,0.050906 -0.03812,0.1018163 -0.0411,0.1084054 -0.06486,0.2048089 -0.01537,0.1041681 -0.03372,0.2149251 -0.01835,0.1107569 -0.06603,0.2161822 -0.07812,0.1551565 -0.08039,0.2215949 -0.0017,0.038902 -0.0071,0.068243 -0.0035,0.034123 -0.0089,0.063459 l -0.01584,0.1753909 q -0.0065,0.040714 -0.01301,0.08142 -0.0047,0.045492 -0.016,0.08801 -0.01239,0.097579 -0.01395,0.2238665 -0.0016,0.1262873 -0.01395,0.2238666 -0.002,0.1975101 0.01924,0.3698405 0.02127,0.1723294 0.09218,0.3314019 l 0.02706,0.071771 q 0.01083,0.028709 0.04856,0.041806 0.04306,-0.016237 0.129107,-0.092408 0.05129,-0.095855 0.0978,-0.1899067 0.04651,-0.094051 0.08463,-0.1958669 0.07623,-0.2036326 0.171604,-0.4144827 0.07623,-0.2036321 0.114735,-0.4203621 0.0385,-0.21673 0.03206,-0.4656958 0.0089,-0.063458 0.01113,-0.129896 0.0041,-0.061653 -2.42e-4,-0.1310718 -0.0098,-0.127463 0.0145,-0.2513987 -0.0051,-0.1729586 -0.0084,-0.3411323 0.0015,-0.1699778 0.0066,-0.3303867 0.01253,-0.343565 -0.0042,-0.6487709 z"
     id="text2-5-9"
     aria-label="easy"
     inkscape:label="easy" />
</svg>
